<svg xmlns="http://www.w3.org/2000/svg" xmlns:xlink="http://www.w3.org/1999/xlink" id="Camada_1" x="0px" y="0px" viewBox="0 0 1080 240" style="enable-background:new 0 0 1080 240;" xml:space="preserve"><style type="text/css">	.st0{fill:#FFFFFF;}	.st1{fill:#5BC93E;}</style><g>	<path class="st0" d="M140.24,51.4c3.19-1.56,5.68-3.76,7.47-6.6c1.79-2.84,2.69-6.21,2.69-10.08c0-3.91-0.9-7.28-2.69-10.11  c-1.79-2.83-4.29-5.02-7.47-6.58c-3.19-1.56-6.88-2.34-11.09-2.34h-17.99v38.05h17.99C133.35,53.74,137.05,52.96,140.24,51.4z   M121.92,45.15V24.28h6.79c2.17,0,4.07,0.41,5.68,1.22c1.61,0.82,2.87,2,3.78,3.56c0.91,1.56,1.36,3.44,1.36,5.65  c0,2.17-0.45,4.05-1.36,5.63c-0.91,1.58-2.17,2.77-3.78,3.59c-1.61,0.81-3.51,1.22-5.68,1.22H121.92z"></path>	<polygon class="st0" points="185.7,45.42 165.81,45.42 165.81,38.46 182.71,38.46 182.71,30.42 165.81,30.42 165.81,24 185,24   185,15.69 155.16,15.69 155.16,53.74 185.7,53.74  "></polygon>	<path class="st0" d="M208.34,45.72c-0.91,0.27-2.1,0.41-3.59,0.41c-2.21,0-4.43-0.35-6.66-1.06s-4.19-1.6-5.9-2.69l-3.53,7.94  c1.81,1.23,4.16,2.24,7.04,3.02s5.88,1.17,9,1.17c3.77,0,6.89-0.56,9.38-1.68c2.48-1.12,4.35-2.62,5.6-4.48  c1.25-1.87,1.88-3.9,1.88-6.11c0-1.99-0.39-3.65-1.17-4.97c-0.78-1.32-1.8-2.39-3.07-3.21c-1.27-0.81-2.67-1.47-4.21-1.96  c-1.54-0.49-3.08-0.9-4.62-1.22c-1.54-0.33-2.95-0.64-4.24-0.95c-1.29-0.31-2.32-0.71-3.1-1.2c-0.78-0.49-1.17-1.15-1.17-1.98  c0-0.65,0.2-1.23,0.6-1.74c0.4-0.51,1.05-0.91,1.96-1.22c0.91-0.31,2.1-0.46,3.59-0.46c1.67,0,3.39,0.24,5.16,0.73  c1.77,0.49,3.57,1.22,5.38,2.2l3.32-7.99c-1.88-1.09-4.03-1.91-6.44-2.47c-2.41-0.56-4.86-0.84-7.36-0.84  c-3.73,0-6.85,0.56-9.35,1.69c-2.5,1.12-4.38,2.61-5.63,4.46c-1.25,1.85-1.87,3.91-1.87,6.2c0,2.03,0.4,3.7,1.2,5.03  c0.8,1.32,1.83,2.39,3.1,3.21c1.27,0.81,2.67,1.48,4.21,1.98c1.54,0.51,3.08,0.92,4.62,1.25c1.54,0.33,2.94,0.65,4.21,0.98  c1.27,0.33,2.3,0.74,3.1,1.25c0.8,0.51,1.2,1.2,1.2,2.07c0,0.62-0.21,1.15-0.63,1.6C209.9,45.08,209.24,45.45,208.34,45.72z"></path>	<path class="st0" d="M229.49,48.95c1.87,1.78,4.08,3.14,6.63,4.1c2.55,0.96,5.33,1.44,8.34,1.44c3.51,0,6.66-0.63,9.43-1.88  c2.77-1.25,5.08-3.02,6.93-5.3l-6.85-6.2c-1.23,1.45-2.58,2.55-4.05,3.32c-1.47,0.76-3.11,1.14-4.92,1.14  c-1.56,0-2.99-0.25-4.29-0.76c-1.3-0.51-2.42-1.24-3.34-2.2c-0.92-0.96-1.65-2.11-2.17-3.45c-0.53-1.34-0.79-2.83-0.79-4.46  s0.26-3.12,0.79-4.46c0.52-1.34,1.25-2.49,2.17-3.45c0.92-0.96,2.04-1.69,3.34-2.2c1.3-0.51,2.74-0.76,4.29-0.76  c1.81,0,3.45,0.38,4.92,1.14c1.47,0.76,2.82,1.87,4.05,3.32l6.85-6.2c-1.85-2.32-4.16-4.09-6.93-5.33  c-2.77-1.23-5.92-1.85-9.43-1.85c-3.01,0-5.79,0.48-8.34,1.44s-4.77,2.33-6.63,4.1c-1.87,1.78-3.32,3.87-4.38,6.28  c-1.05,2.41-1.58,5.06-1.58,7.96c0,2.9,0.52,5.55,1.58,7.96C226.17,45.08,227.63,47.18,229.49,48.95z"></path>	<path class="st0" d="M281.54,54.5c5.62,0,10-1.54,13.15-4.62c3.15-3.08,4.73-7.45,4.73-13.1V15.69h-10.6v20.76  c0,3.26-0.63,5.6-1.9,7.01c-1.27,1.41-3.03,2.12-5.27,2.12c-2.25,0-4.01-0.71-5.3-2.12c-1.29-1.41-1.93-3.75-1.93-7.01V15.69  h-10.76v21.09c0,5.65,1.58,10.02,4.73,13.1C271.54,52.96,275.92,54.5,281.54,54.5z"></path>	<path class="st0" d="M338.23,50.99c2.66-1.83,4-4.39,4-7.69c0-2.21-0.55-4.09-1.66-5.63c-1.11-1.54-2.65-2.72-4.65-3.53  c-0.24-0.1-0.5-0.17-0.75-0.26c1.53-0.81,2.76-1.84,3.66-3.11c1.03-1.47,1.55-3.18,1.55-5.14c0-2.97-1.23-5.37-3.7-7.2  c-2.46-1.83-6.2-2.74-11.2-2.74h-19.46v38.05h20.55C331.68,53.74,335.57,52.82,338.23,50.99z M324.07,23.46  c1.81,0,3.17,0.3,4.08,0.9c0.91,0.6,1.36,1.51,1.36,2.75s-0.45,2.16-1.36,2.77c-0.91,0.62-2.26,0.92-4.08,0.92h-7.39v-7.34H324.07z   M316.68,45.96v-7.72h9.02c1.85,0,3.25,0.32,4.21,0.95c0.96,0.63,1.44,1.6,1.44,2.91c0,1.31-0.48,2.27-1.44,2.91  c-0.96,0.63-2.36,0.95-4.21,0.95H316.68z"></path>	<path class="st0" d="M357.94,43.63h5.87l6.9,10.11h11.52l-8.23-11.99c2.3-1.09,4.11-2.6,5.4-4.56c1.38-2.08,2.07-4.56,2.07-7.42  c0-2.9-0.69-5.41-2.07-7.53c-1.38-2.12-3.32-3.74-5.84-4.86c-2.52-1.12-5.52-1.68-9-1.68h-17.39v38.05h10.76V43.63z M368.95,25.64  c1.1,0.98,1.66,2.36,1.66,4.13c0,1.74-0.55,3.1-1.66,4.08c-1.11,0.98-2.78,1.47-5.03,1.47h-5.98V24.17h5.98  C366.17,24.17,367.84,24.66,368.95,25.64z"></path>	<path class="st0" d="M397.25,46.34h16.13l2.97,7.39h11.2L410.7,15.69h-10.6L383.3,53.74h10.98L397.25,46.34z M400.43,38.41  l4.88-12.16l4.88,12.16H400.43z"></path>	<path class="st0" d="M454.7,46.34h16.13l2.97,7.39H485l-16.85-38.05h-10.6l-16.79,38.05h10.98L454.7,46.34z M457.88,38.41  l4.88-12.16l4.88,12.16H457.88z"></path>	<polygon class="st0" points="497.93,38.9 512.61,38.9 512.61,53.74 523.37,53.74 523.37,15.69 512.61,15.69 512.61,29.98   497.93,29.98 497.93,15.69 487.17,15.69 487.17,53.74 497.93,53.74  "></polygon>	<path class="st0" d="M534.25,48.87c1.9,1.79,4.14,3.18,6.71,4.16c2.57,0.98,5.38,1.47,8.42,1.47c3.08,0,5.9-0.49,8.45-1.47  c2.55-0.98,4.77-2.36,6.66-4.13c1.88-1.77,3.36-3.87,4.43-6.28c1.07-2.41,1.6-5.05,1.6-7.91c0-2.86-0.54-5.49-1.6-7.88  c-1.07-2.39-2.55-4.48-4.43-6.28c-1.88-1.79-4.1-3.18-6.66-4.16c-2.55-0.98-5.37-1.47-8.45-1.47c-3.04,0-5.85,0.49-8.42,1.47  c-2.57,0.98-4.81,2.36-6.71,4.16c-1.9,1.79-3.38,3.89-4.43,6.28c-1.05,2.39-1.58,5.02-1.58,7.88c0,2.86,0.52,5.49,1.58,7.88  C530.87,44.98,532.34,47.08,534.25,48.87z M539.9,30.23c0.52-1.32,1.25-2.46,2.17-3.42s2.01-1.69,3.26-2.2  c1.25-0.51,2.6-0.76,4.05-0.76c1.45,0,2.8,0.25,4.05,0.76c1.25,0.51,2.34,1.24,3.26,2.2s1.65,2.1,2.17,3.42  c0.52,1.32,0.79,2.82,0.79,4.48c0,1.63-0.26,3.12-0.79,4.46c-0.53,1.34-1.25,2.49-2.17,3.45s-2.01,1.69-3.26,2.2  c-1.25,0.51-2.6,0.76-4.05,0.76c-1.45,0-2.8-0.25-4.05-0.76c-1.25-0.51-2.34-1.24-3.26-2.2s-1.65-2.11-2.17-3.45  c-0.53-1.34-0.79-2.83-0.79-4.46C539.11,33.05,539.37,31.55,539.9,30.23z"></path>	<path class="st0" d="M586.04,43.63h5.87l6.9,10.11h11.52l-8.23-11.99c2.3-1.09,4.11-2.6,5.4-4.56c1.38-2.08,2.07-4.56,2.07-7.42  c0-2.9-0.69-5.41-2.07-7.53c-1.38-2.12-3.32-3.74-5.84-4.86c-2.52-1.12-5.52-1.68-9-1.68h-17.39v38.05h10.76V43.63z M597.05,25.64  c1.1,0.98,1.66,2.36,1.66,4.13c0,1.74-0.55,3.1-1.66,4.08c-1.11,0.98-2.78,1.47-5.03,1.47h-5.98V24.17h5.98  C594.27,24.17,595.94,24.66,597.05,25.64z"></path>	<path class="st0" d="M625.35,46.34h16.13l2.97,7.39h11.2L638.8,15.69h-10.6L611.4,53.74h10.98L625.35,46.34z M628.53,38.41  l4.88-12.16l4.88,12.16H628.53z"></path>	<path class="st0" d="M677.41,48.95c1.87,1.78,4.08,3.14,6.63,4.1c2.55,0.96,5.33,1.44,8.34,1.44c3.51,0,6.66-0.63,9.43-1.88  c2.77-1.25,5.08-3.02,6.93-5.3l-6.85-6.2c-1.23,1.45-2.58,2.55-4.05,3.32c-1.47,0.76-3.11,1.14-4.92,1.14  c-1.56,0-2.99-0.25-4.29-0.76c-1.3-0.51-2.42-1.24-3.34-2.2s-1.65-2.11-2.17-3.45c-0.53-1.34-0.79-2.83-0.79-4.46  s0.26-3.12,0.79-4.46c0.52-1.34,1.25-2.49,2.17-3.45s2.04-1.69,3.34-2.2c1.3-0.51,2.74-0.76,4.29-0.76c1.81,0,3.45,0.38,4.92,1.14  c1.47,0.76,2.82,1.87,4.05,3.32l6.85-6.2c-1.85-2.32-4.16-4.09-6.93-5.33c-2.77-1.23-5.92-1.85-9.43-1.85  c-3.01,0-5.79,0.48-8.34,1.44s-4.77,2.33-6.63,4.1c-1.87,1.78-3.32,3.87-4.38,6.28c-1.05,2.41-1.58,5.06-1.58,7.96  c0,2.9,0.52,5.55,1.58,7.96C674.09,45.08,675.55,47.18,677.41,48.95z"></path>	<polygon class="st0" points="742.88,4.33 732.56,4.33 725.27,12.59 732.67,12.59  "></polygon>	<path class="st0" d="M715.46,48.87c1.9,1.79,4.14,3.18,6.71,4.16c2.57,0.98,5.38,1.47,8.42,1.47c3.08,0,5.9-0.49,8.45-1.47  c2.55-0.98,4.77-2.36,6.66-4.13c1.88-1.77,3.36-3.87,4.43-6.28c1.07-2.41,1.6-5.05,1.6-7.91c0-2.86-0.54-5.49-1.6-7.88  c-1.07-2.39-2.55-4.48-4.43-6.28c-1.88-1.79-4.1-3.18-6.66-4.16c-2.55-0.98-5.37-1.47-8.45-1.47c-3.04,0-5.85,0.49-8.42,1.47  c-2.57,0.98-4.81,2.36-6.71,4.16c-1.9,1.79-3.38,3.89-4.43,6.28c-1.05,2.39-1.58,5.02-1.58,7.88c0,2.86,0.52,5.49,1.58,7.88  C712.09,44.98,713.56,47.08,715.46,48.87z M721.12,30.23c0.52-1.32,1.25-2.46,2.17-3.42c0.92-0.96,2.01-1.69,3.26-2.2  c1.25-0.51,2.6-0.76,4.05-0.76c1.45,0,2.8,0.25,4.05,0.76c1.25,0.51,2.34,1.24,3.26,2.2c0.92,0.96,1.65,2.1,2.17,3.42  c0.52,1.32,0.79,2.82,0.79,4.48c0,1.63-0.26,3.12-0.79,4.46c-0.53,1.34-1.25,2.49-2.17,3.45c-0.92,0.96-2.01,1.69-3.26,2.2  c-1.25,0.51-2.6,0.76-4.05,0.76c-1.45,0-2.8-0.25-4.05-0.76c-1.25-0.51-2.34-1.24-3.26-2.2c-0.92-0.96-1.65-2.11-2.17-3.45  c-0.53-1.34-0.79-2.83-0.79-4.46C720.33,33.05,720.59,31.55,721.12,30.23z"></path>	<polygon class="st0" points="766.45,34.11 776.18,49.98 780.96,49.98 790.75,33.55 790.85,53.74 800.74,53.74 800.63,15.69   791.77,15.69 778.75,37.67 765.36,15.69 756.5,15.69 756.5,53.74 766.45,53.74  "></polygon>	<path class="st0" d="M811.5,48.87c1.9,1.79,4.14,3.18,6.71,4.16c2.57,0.98,5.38,1.47,8.42,1.47c3.08,0,5.9-0.49,8.45-1.47  c2.55-0.98,4.77-2.36,6.66-4.13c1.88-1.77,3.36-3.87,4.43-6.28c1.07-2.41,1.6-5.05,1.6-7.91c0-2.86-0.54-5.49-1.6-7.88  c-1.07-2.39-2.55-4.48-4.43-6.28c-1.88-1.79-4.1-3.18-6.66-4.16c-2.55-0.98-5.37-1.47-8.45-1.47c-3.04,0-5.85,0.49-8.42,1.47  c-2.57,0.98-4.81,2.36-6.71,4.16c-1.9,1.79-3.38,3.89-4.43,6.28c-1.05,2.39-1.58,5.02-1.58,7.88c0,2.86,0.52,5.49,1.58,7.88  C808.12,44.98,809.6,47.08,811.5,48.87z M817.16,30.23c0.52-1.32,1.25-2.46,2.17-3.42s2.01-1.69,3.26-2.2  c1.25-0.51,2.6-0.76,4.05-0.76c1.45,0,2.8,0.25,4.05,0.76c1.25,0.51,2.34,1.24,3.26,2.2s1.65,2.1,2.17,3.42  c0.52,1.32,0.79,2.82,0.79,4.48c0,1.63-0.26,3.12-0.79,4.46c-0.53,1.34-1.25,2.49-2.17,3.45s-2.01,1.69-3.26,2.2  c-1.25,0.51-2.6,0.76-4.05,0.76c-1.45,0-2.8-0.25-4.05-0.76c-1.25-0.51-2.34-1.24-3.26-2.2s-1.65-2.11-2.17-3.45  c-0.53-1.34-0.79-2.83-0.79-4.46C816.37,33.05,816.63,31.55,817.16,30.23z"></path>	<polygon class="st0" points="897.08,45.2 878.93,45.2 878.93,15.69 868.16,15.69 868.16,53.74 897.08,53.74  "></polygon>	<path class="st0" d="M903.6,48.87c1.9,1.79,4.14,3.18,6.71,4.16c2.57,0.98,5.38,1.47,8.42,1.47c3.08,0,5.9-0.49,8.45-1.47  s4.77-2.36,6.66-4.13c1.88-1.77,3.36-3.87,4.43-6.28c1.07-2.41,1.6-5.05,1.6-7.91c0-2.86-0.53-5.49-1.6-7.88  c-1.07-2.39-2.55-4.48-4.43-6.28c-1.88-1.79-4.1-3.18-6.66-4.16c-2.55-0.98-5.37-1.47-8.45-1.47c-3.04,0-5.85,0.49-8.42,1.47  c-2.57,0.98-4.81,2.36-6.71,4.16c-1.9,1.79-3.38,3.89-4.43,6.28c-1.05,2.39-1.58,5.02-1.58,7.88c0,2.86,0.52,5.49,1.58,7.88  C900.22,44.98,901.7,47.08,903.6,48.87z M909.25,30.23c0.52-1.32,1.25-2.46,2.17-3.42s2.01-1.69,3.26-2.2  c1.25-0.51,2.6-0.76,4.05-0.76c1.45,0,2.8,0.25,4.05,0.76c1.25,0.51,2.34,1.24,3.26,2.2c0.92,0.96,1.65,2.1,2.17,3.42  c0.52,1.32,0.79,2.82,0.79,4.48c0,1.63-0.26,3.12-0.79,4.46c-0.52,1.34-1.25,2.49-2.17,3.45c-0.92,0.96-2.01,1.69-3.26,2.2  c-1.25,0.51-2.6,0.76-4.05,0.76c-1.45,0-2.8-0.25-4.05-0.76c-1.25-0.51-2.34-1.24-3.26-2.2s-1.65-2.11-2.17-3.45  c-0.53-1.34-0.79-2.83-0.79-4.46C908.47,33.05,908.73,31.55,909.25,30.23z"></path>	<path class="st0" d="M961.56,45.72c-0.91,0.27-2.1,0.41-3.59,0.41c-2.21,0-4.43-0.35-6.66-1.06s-4.19-1.6-5.9-2.69l-3.53,7.94  c1.81,1.23,4.16,2.24,7.04,3.02s5.88,1.17,9,1.17c3.77,0,6.89-0.56,9.38-1.68c2.48-1.12,4.35-2.62,5.6-4.48  c1.25-1.87,1.87-3.9,1.87-6.11c0-1.99-0.39-3.65-1.17-4.97c-0.78-1.32-1.8-2.39-3.07-3.21c-1.27-0.81-2.67-1.47-4.21-1.96  c-1.54-0.49-3.08-0.9-4.62-1.22c-1.54-0.33-2.95-0.64-4.24-0.95c-1.29-0.31-2.32-0.71-3.1-1.2c-0.78-0.49-1.17-1.15-1.17-1.98  c0-0.65,0.2-1.23,0.6-1.74c0.4-0.51,1.05-0.91,1.96-1.22c0.91-0.31,2.1-0.46,3.59-0.46c1.67,0,3.39,0.24,5.16,0.73  c1.78,0.49,3.57,1.22,5.38,2.2l3.32-7.99c-1.89-1.09-4.03-1.91-6.44-2.47c-2.41-0.56-4.86-0.84-7.36-0.84  c-3.73,0-6.85,0.56-9.35,1.69c-2.5,1.12-4.38,2.61-5.63,4.46c-1.25,1.85-1.87,3.91-1.87,6.2c0,2.03,0.4,3.7,1.2,5.03  c0.8,1.32,1.83,2.39,3.1,3.21c1.27,0.81,2.67,1.48,4.21,1.98c1.54,0.51,3.08,0.92,4.62,1.25c1.54,0.33,2.94,0.65,4.21,0.98  c1.27,0.33,2.3,0.74,3.1,1.25c0.8,0.51,1.2,1.2,1.2,2.07c0,0.62-0.21,1.15-0.63,1.6C963.12,45.08,962.46,45.45,961.56,45.72z"></path>	<path class="st0" d="M14.08,84.4h13.15v16.36c0,3.7-1.59,5.54-4.78,5.54c-1.2,0-2.34-0.33-3.42-1.01  c-1.09-0.67-2.14-1.66-3.15-2.96L10,109.29c1.49,1.81,3.36,3.2,5.63,4.16c2.26,0.96,4.79,1.44,7.58,1.44  c4.78,0,8.42-1.22,10.92-3.67c2.5-2.45,3.75-6.15,3.75-11.12V76.08H14.08V84.4z"></path>	<polygon class="st0" points="75.79,64.72 65.46,64.72 58.18,72.98 65.57,72.98  "></polygon>	<path class="st0" d="M78.61,109.29c1.88-1.78,3.36-3.87,4.43-6.28c1.07-2.41,1.6-5.05,1.6-7.91c0-2.86-0.54-5.49-1.6-7.88  c-1.07-2.39-2.55-4.48-4.43-6.28c-1.88-1.79-4.1-3.18-6.66-4.16c-2.55-0.98-5.37-1.47-8.45-1.47c-3.04,0-5.85,0.49-8.42,1.47  c-2.57,0.98-4.81,2.36-6.71,4.16c-1.9,1.79-3.38,3.89-4.43,6.28c-1.05,2.39-1.58,5.02-1.58,7.88c0,2.86,0.52,5.49,1.58,7.88  c1.05,2.39,2.53,4.48,4.43,6.28c1.9,1.79,4.14,3.18,6.71,4.16c2.57,0.98,5.38,1.47,8.42,1.47c3.08,0,5.9-0.49,8.45-1.47  C74.51,112.44,76.73,111.07,78.61,109.29z M67.55,105.21c-1.25,0.51-2.6,0.76-4.05,0.76c-1.45,0-2.8-0.25-4.05-0.76  c-1.25-0.51-2.34-1.24-3.26-2.2s-1.65-2.11-2.17-3.45c-0.53-1.34-0.79-2.83-0.79-4.46c0-1.67,0.26-3.16,0.79-4.48  c0.52-1.32,1.25-2.46,2.17-3.42s2.01-1.69,3.26-2.2c1.25-0.51,2.6-0.76,4.05-0.76c1.45,0,2.8,0.25,4.05,0.76  c1.25,0.51,2.34,1.24,3.26,2.2s1.65,2.1,2.17,3.42c0.52,1.32,0.79,2.82,0.79,4.48c0,1.63-0.26,3.12-0.79,4.46  c-0.53,1.34-1.25,2.49-2.17,3.45S68.8,104.71,67.55,105.21z"></path>	<polygon class="st0" points="115.43,76.08 104.87,100.88 94.55,76.08 82.92,76.08 99.18,114.13 109.77,114.13 126.08,76.08  "></polygon>	<polygon class="st0" points="158.83,105.81 138.94,105.81 138.94,98.85 155.84,98.85 155.84,90.81 138.94,90.81 138.94,84.4   158.12,84.4 158.12,76.08 128.29,76.08 128.29,114.13 158.83,114.13  "></polygon>	<polygon class="st0" points="200.53,114.13 200.53,76.08 189.99,76.08 189.99,96.36 173.19,76.08 164.33,76.08 164.33,114.13   174.88,114.13 174.88,93.85 191.67,114.13  "></polygon>	<polygon class="st0" points="237.31,84.4 237.31,76.08 207.47,76.08 207.47,114.13 238.02,114.13 238.02,105.81 218.12,105.81   218.12,98.85 235.03,98.85 235.03,90.81 218.12,90.81 218.12,84.4  "></polygon>	<path class="st0" d="M271.98,108.72c1.25-1.87,1.88-3.9,1.88-6.11c0-1.99-0.39-3.65-1.17-4.97c-0.78-1.32-1.8-2.39-3.07-3.21  c-1.27-0.81-2.67-1.47-4.21-1.96c-1.54-0.49-3.08-0.9-4.62-1.22c-1.54-0.33-2.95-0.64-4.24-0.95c-1.29-0.31-2.32-0.71-3.1-1.2  c-0.78-0.49-1.17-1.15-1.17-1.98c0-0.65,0.2-1.23,0.6-1.74c0.4-0.51,1.05-0.91,1.96-1.22c0.91-0.31,2.1-0.46,3.59-0.46  c1.67,0,3.39,0.24,5.16,0.73c1.77,0.49,3.57,1.22,5.38,2.2l3.32-7.99c-1.88-1.09-4.03-1.91-6.44-2.47  c-2.41-0.56-4.86-0.84-7.36-0.84c-3.73,0-6.85,0.56-9.35,1.69s-4.38,2.61-5.63,4.46s-1.87,3.91-1.87,6.2c0,2.03,0.4,3.7,1.2,5.03  c0.8,1.32,1.83,2.39,3.1,3.21c1.27,0.81,2.67,1.48,4.21,1.98c1.54,0.51,3.08,0.92,4.62,1.25c1.54,0.33,2.94,0.65,4.21,0.98  c1.27,0.33,2.3,0.74,3.1,1.25c0.8,0.51,1.2,1.2,1.2,2.07c0,0.62-0.21,1.15-0.63,1.6c-0.42,0.45-1.08,0.82-1.98,1.09  c-0.91,0.27-2.1,0.41-3.59,0.41c-2.21,0-4.43-0.35-6.66-1.06c-2.23-0.71-4.19-1.6-5.9-2.69l-3.53,7.94  c1.81,1.23,4.16,2.24,7.04,3.02c2.88,0.78,5.88,1.17,9,1.17c3.77,0,6.89-0.56,9.38-1.68C268.87,112.08,270.73,110.59,271.98,108.72  z"></path>	<polygon class="st0" points="324.08,105.81 304.18,105.81 304.18,98.85 321.09,98.85 321.09,90.81 304.18,90.81 304.18,84.4   323.37,84.4 323.37,76.08 293.53,76.08 293.53,114.13 324.08,114.13  "></polygon>	<path class="st0" d="M329.56,81.46c-1.25,1.85-1.87,3.91-1.87,6.2c0,2.03,0.4,3.7,1.2,5.03c0.8,1.32,1.83,2.39,3.1,3.21  c1.27,0.81,2.67,1.48,4.21,1.98c1.54,0.51,3.08,0.92,4.62,1.25c1.54,0.33,2.94,0.65,4.21,0.98c1.27,0.33,2.3,0.74,3.1,1.25  c0.8,0.51,1.2,1.2,1.2,2.07c0,0.62-0.21,1.15-0.63,1.6c-0.42,0.45-1.08,0.82-1.98,1.09c-0.91,0.27-2.1,0.41-3.59,0.41  c-2.21,0-4.43-0.35-6.66-1.06c-2.23-0.71-4.19-1.6-5.9-2.69l-3.53,7.94c1.81,1.23,4.16,2.24,7.04,3.02c2.88,0.78,5.88,1.17,9,1.17  c3.77,0,6.89-0.56,9.38-1.68c2.48-1.12,4.35-2.62,5.6-4.48c1.25-1.87,1.88-3.9,1.88-6.11c0-1.99-0.39-3.65-1.17-4.97  c-0.78-1.32-1.8-2.39-3.07-3.21c-1.27-0.81-2.67-1.47-4.21-1.96c-1.54-0.49-3.08-0.9-4.62-1.22c-1.54-0.33-2.95-0.64-4.24-0.95  c-1.29-0.31-2.32-0.71-3.1-1.2c-0.78-0.49-1.17-1.15-1.17-1.98c0-0.65,0.2-1.23,0.6-1.74c0.4-0.51,1.05-0.91,1.96-1.22  c0.91-0.31,2.1-0.46,3.59-0.46c1.67,0,3.39,0.24,5.16,0.73c1.77,0.49,3.57,1.22,5.38,2.2l3.32-7.99c-1.88-1.09-4.03-1.91-6.44-2.47  c-2.41-0.56-4.86-0.84-7.36-0.84c-3.73,0-6.85,0.56-9.35,1.69S330.81,79.61,329.56,81.46z"></path>	<polygon class="st0" points="382.91,114.13 382.91,84.61 394.54,84.61 394.54,76.08 360.47,76.08 360.47,84.61 372.15,84.61   372.15,114.13  "></polygon>	<polygon class="st0" points="412.94,64.72 405.65,72.98 413.05,72.98 423.26,64.72  "></polygon>	<path class="st0" d="M405.65,76.08l-16.79,38.05h10.98l2.97-7.39h16.13l2.97,7.39h11.2l-16.85-38.05H405.65z M405.99,98.8  l4.88-12.16l4.88,12.16H405.99z"></path>	<polygon class="st0" points="445.82,93.85 462.61,114.13 471.47,114.13 471.47,76.08 460.93,76.08 460.93,96.36 444.14,76.08   435.28,76.08 435.28,114.13 445.82,114.13  "></polygon>	<path class="st1" d="M513.05,75.32c-3.08,0-5.92,0.48-8.51,1.44c-2.59,0.96-4.83,2.33-6.71,4.1c-1.88,1.78-3.35,3.87-4.4,6.28  c-1.05,2.41-1.58,5.06-1.58,7.96c0,2.9,0.52,5.55,1.58,7.96c1.05,2.41,2.51,4.5,4.38,6.28c1.87,1.78,4.09,3.14,6.66,4.1  c2.57,0.96,5.36,1.44,8.37,1.44c2.75,0,5.56-0.42,8.42-1.25c2.86-0.83,5.38-2.03,7.56-3.59V94.29h-9.51v10.44  c-0.38,0.18-0.76,0.33-1.14,0.46c-1.52,0.52-3.08,0.79-4.67,0.79c-1.59,0-3.05-0.26-4.38-0.79c-1.32-0.52-2.46-1.27-3.4-2.23  c-0.94-0.96-1.68-2.11-2.2-3.45c-0.53-1.34-0.79-2.81-0.79-4.4c0-1.67,0.26-3.16,0.79-4.48c0.52-1.32,1.26-2.46,2.2-3.42  c0.94-0.96,2.08-1.69,3.42-2.2c1.34-0.51,2.83-0.76,4.46-0.76c1.85,0,3.52,0.35,5.03,1.06c1.5,0.71,2.91,1.77,4.21,3.18l6.85-6.2  c-1.85-2.25-4.18-3.97-7.01-5.16C519.85,75.92,516.64,75.32,513.05,75.32z"></path>	<path class="st1" d="M546.71,76.08l-16.79,38.05h10.98l2.97-7.39h16.13l2.97,7.39h11.2l-16.85-38.05H546.71z M547.04,98.8  l4.88-12.16l4.88,12.16H547.04z"></path>	<polygon class="st1" points="601.98,96.36 585.19,76.08 576.33,76.08 576.33,114.13 586.87,114.13 586.87,93.85 603.67,114.13   612.53,114.13 612.53,76.08 601.98,76.08  "></polygon>	<path class="st1" d="M642.13,76.08h-10.6l-16.79,38.05h10.98l2.97-7.39h16.13l2.97,7.39h11.2L642.13,76.08z M631.87,98.8  l4.88-12.16l4.88,12.16H631.87z"></path>	<polygon class="st1" points="671.7,93.85 688.49,114.13 697.35,114.13 697.35,76.08 686.81,76.08 686.81,96.36 670.01,76.08   661.15,76.08 661.15,114.13 671.7,114.13  "></polygon>	<path class="st1" d="M733.37,78.42c-3.19-1.56-6.88-2.34-11.09-2.34h-17.99v38.05h17.99c4.2,0,7.9-0.78,11.09-2.34  c3.19-1.56,5.68-3.76,7.47-6.6c1.79-2.84,2.69-6.21,2.69-10.08c0-3.91-0.9-7.28-2.69-10.11C739.05,82.17,736.56,79.98,733.37,78.42  z M731.3,100.73c-0.91,1.58-2.17,2.77-3.78,3.59c-1.61,0.81-3.51,1.22-5.68,1.22h-6.79V84.67h6.79c2.17,0,4.07,0.41,5.68,1.22  c1.61,0.82,2.87,2,3.78,3.56c0.91,1.56,1.36,3.44,1.36,5.65C732.66,97.28,732.21,99.15,731.3,100.73z"></path>	<path class="st1" d="M746.21,95.1c0,2.86,0.52,5.49,1.58,7.88c1.05,2.39,2.53,4.48,4.43,6.28c1.9,1.79,4.14,3.18,6.71,4.16  c2.57,0.98,5.38,1.47,8.42,1.47c3.08,0,5.9-0.49,8.45-1.47c2.55-0.98,4.77-2.36,6.66-4.13c1.88-1.78,3.36-3.87,4.43-6.28  c1.07-2.41,1.6-5.05,1.6-7.91c0-2.86-0.54-5.49-1.6-7.88c-1.07-2.39-2.55-4.48-4.43-6.28c-1.88-1.79-4.1-3.18-6.66-4.16  c-2.55-0.98-5.37-1.47-8.45-1.47c-3.04,0-5.85,0.49-8.42,1.47c-2.57,0.98-4.81,2.36-6.71,4.16c-1.9,1.79-3.38,3.89-4.43,6.28  C746.74,89.61,746.21,92.24,746.21,95.1z M757.87,90.62c0.52-1.32,1.25-2.46,2.17-3.42s2.01-1.69,3.26-2.2  c1.25-0.51,2.6-0.76,4.05-0.76c1.45,0,2.8,0.25,4.05,0.76c1.25,0.51,2.34,1.24,3.26,2.2s1.65,2.1,2.17,3.42  c0.52,1.32,0.79,2.82,0.79,4.48c0,1.63-0.26,3.12-0.79,4.46c-0.53,1.34-1.25,2.49-2.17,3.45s-2.01,1.69-3.26,2.2  c-1.25,0.51-2.6,0.76-4.05,0.76c-1.45,0-2.8-0.25-4.05-0.76c-1.25-0.51-2.34-1.24-3.26-2.2s-1.65-2.11-2.17-3.45  c-0.53-1.34-0.79-2.83-0.79-4.46C757.08,93.44,757.34,91.94,757.87,90.62z"></path>	<polygon class="st1" points="853.12,114.13 853.01,76.08 844.15,76.08 831.13,98.06 817.74,76.08 808.88,76.08 808.88,114.13   818.83,114.13 818.83,94.51 828.55,110.38 833.34,110.38 843.13,93.94 843.23,114.13  "></polygon>	<rect x="860.03" y="76.08" class="st1" width="10.76" height="38.05"></rect>	<polygon class="st1" points="877.72,76.08 877.72,114.13 906.64,114.13 906.64,105.59 888.48,105.59 888.48,76.08  "></polygon>	<polygon class="st1" points="939.94,105.81 920.05,105.81 920.05,98.85 936.95,98.85 936.95,90.81 920.05,90.81 920.05,84.4   939.24,84.4 939.24,76.08 909.4,76.08 909.4,114.13 939.94,114.13  "></polygon>	<path class="st1" d="M962.57,106.11c-0.91,0.27-2.1,0.41-3.59,0.41c-2.21,0-4.43-0.35-6.66-1.06c-2.23-0.71-4.19-1.6-5.9-2.69  l-3.53,7.94c1.81,1.23,4.16,2.24,7.04,3.02c2.88,0.78,5.88,1.17,9,1.17c3.77,0,6.89-0.56,9.38-1.68c2.48-1.12,4.35-2.62,5.6-4.48  c1.25-1.87,1.87-3.9,1.87-6.11c0-1.99-0.39-3.65-1.17-4.97c-0.78-1.32-1.8-2.39-3.07-3.21c-1.27-0.81-2.67-1.47-4.21-1.96  c-1.54-0.49-3.08-0.9-4.62-1.22c-1.54-0.33-2.95-0.64-4.24-0.95c-1.29-0.31-2.32-0.71-3.1-1.2c-0.78-0.49-1.17-1.15-1.17-1.98  c0-0.65,0.2-1.23,0.6-1.74c0.4-0.51,1.05-0.91,1.96-1.22c0.91-0.31,2.1-0.46,3.59-0.46c1.67,0,3.39,0.24,5.16,0.73  c1.78,0.49,3.57,1.22,5.38,2.2l3.32-7.99c-1.89-1.09-4.03-1.91-6.44-2.47c-2.41-0.56-4.86-0.84-7.36-0.84  c-3.73,0-6.85,0.56-9.35,1.69c-2.5,1.12-4.38,2.61-5.63,4.46c-1.25,1.85-1.87,3.91-1.87,6.2c0,2.03,0.4,3.7,1.2,5.03  c0.8,1.32,1.83,2.39,3.1,3.21c1.27,0.81,2.67,1.48,4.21,1.98c1.54,0.51,3.08,0.92,4.62,1.25c1.54,0.33,2.94,0.65,4.21,0.98  c1.27,0.33,2.3,0.74,3.1,1.25c0.8,0.51,1.2,1.2,1.2,2.07c0,0.62-0.21,1.15-0.63,1.6C964.14,105.48,963.48,105.84,962.57,106.11z"></path>	<path class="st1" d="M1024.54,78.42c-3.19-1.56-6.88-2.34-11.09-2.34h-17.99v38.05h17.99c4.2,0,7.9-0.78,11.09-2.34  c3.19-1.56,5.68-3.76,7.47-6.6c1.79-2.84,2.69-6.21,2.69-10.08c0-3.91-0.9-7.28-2.69-10.11  C1030.22,82.17,1027.72,79.98,1024.54,78.42z M1022.47,100.73c-0.91,1.58-2.17,2.77-3.78,3.59c-1.61,0.81-3.51,1.22-5.68,1.22  h-6.79V84.67h6.79c2.17,0,4.07,0.41,5.68,1.22c1.61,0.82,2.87,2,3.78,3.56c0.91,1.56,1.36,3.44,1.36,5.65  C1023.83,97.28,1023.38,99.15,1022.47,100.73z"></path>	<polygon class="st1" points="1050.11,105.81 1050.11,98.85 1067.01,98.85 1067.01,90.81 1050.11,90.81 1050.11,84.4 1069.29,84.4   1069.29,76.08 1039.45,76.08 1039.45,114.13 1070,114.13 1070,105.81  "></polygon>	<path class="st1" d="M99.45,138.81c-3.19-1.56-6.88-2.34-11.09-2.34H70.37v38.05h17.99c4.2,0,7.9-0.78,11.09-2.34  c3.19-1.56,5.68-3.76,7.47-6.6c1.79-2.84,2.69-6.21,2.69-10.08c0-3.91-0.9-7.28-2.69-10.11  C105.13,142.56,102.63,140.37,99.45,138.81z M97.38,161.12c-0.91,1.58-2.17,2.77-3.78,3.59c-1.61,0.82-3.51,1.22-5.68,1.22h-6.79  v-20.87h6.79c2.17,0,4.07,0.41,5.68,1.22c1.61,0.81,2.87,2,3.78,3.56c0.91,1.56,1.36,3.44,1.36,5.65  C98.74,157.67,98.29,159.54,97.38,161.12z"></path>	<path class="st1" d="M148.54,141.34c-1.88-1.79-4.1-3.18-6.66-4.16c-2.55-0.98-5.37-1.47-8.45-1.47c-3.04,0-5.85,0.49-8.42,1.47  c-2.57,0.98-4.81,2.36-6.71,4.16c-1.9,1.79-3.38,3.89-4.43,6.28c-1.05,2.39-1.58,5.02-1.58,7.88c0,2.86,0.52,5.49,1.58,7.88  c1.05,2.39,2.53,4.48,4.43,6.28c1.9,1.79,4.14,3.18,6.71,4.16c2.57,0.98,5.38,1.47,8.42,1.47c3.08,0,5.9-0.49,8.45-1.47  c2.55-0.98,4.77-2.36,6.66-4.13c1.88-1.78,3.36-3.87,4.43-6.28c1.07-2.41,1.6-5.05,1.6-7.91c0-2.86-0.54-5.49-1.6-7.88  C151.9,145.22,150.43,143.13,148.54,141.34z M142.92,159.95c-0.53,1.34-1.25,2.49-2.17,3.45c-0.92,0.96-2.01,1.69-3.26,2.2  c-1.25,0.51-2.6,0.76-4.05,0.76c-1.45,0-2.8-0.25-4.05-0.76c-1.25-0.51-2.34-1.24-3.26-2.2c-0.92-0.96-1.65-2.11-2.17-3.45  c-0.53-1.34-0.79-2.83-0.79-4.46c0-1.67,0.26-3.16,0.79-4.48c0.52-1.32,1.25-2.46,2.17-3.42c0.92-0.96,2.01-1.69,3.26-2.2  c1.25-0.51,2.6-0.76,4.05-0.76c1.45,0,2.8,0.25,4.05,0.76c1.25,0.51,2.34,1.24,3.26,2.2c0.92,0.96,1.65,2.1,2.17,3.42  c0.52,1.32,0.79,2.82,0.79,4.48C143.7,157.13,143.44,158.61,142.92,159.95z"></path>	<polygon class="st1" points="135.5,133.37 145.72,125.11 135.39,125.11 128.1,133.37  "></polygon>	<polygon class="st1" points="159.33,136.47 159.33,174.52 188.25,174.52 188.25,165.99 170.09,165.99 170.09,136.47  "></polygon>	<path class="st1" d="M218.96,167.13l2.97,7.39h11.2l-16.85-38.05h-10.6l-16.79,38.05h10.98l2.97-7.39H218.96z M206.01,159.19  l4.88-12.16l4.88,12.16H206.01z"></path>	<path class="st1" d="M246.06,164.41h5.87l6.9,10.11h11.52l-8.23-11.99c2.3-1.09,4.11-2.6,5.4-4.56c1.38-2.08,2.07-4.56,2.07-7.42  c0-2.9-0.69-5.41-2.07-7.53c-1.38-2.12-3.32-3.74-5.84-4.86c-2.52-1.12-5.52-1.68-9-1.68H235.3v38.05h10.76V164.41z M257.07,146.42  c1.1,0.98,1.66,2.36,1.66,4.13c0,1.74-0.55,3.1-1.66,4.08c-1.11,0.98-2.78,1.47-5.03,1.47h-5.98v-11.14h5.98  C254.28,144.95,255.96,145.44,257.07,146.42z"></path>	<polygon class="st1" points="304.6,144.79 304.6,136.47 274.76,136.47 274.76,174.52 305.3,174.52 305.3,166.2 285.41,166.2   285.41,159.25 302.31,159.25 302.31,151.2 285.41,151.2 285.41,144.79  "></polygon>	<path class="st1" d="M339.97,158.02c-0.78-1.32-1.8-2.39-3.07-3.21c-1.27-0.81-2.67-1.47-4.21-1.96c-1.54-0.49-3.08-0.9-4.62-1.22  c-1.54-0.33-2.95-0.64-4.24-0.95c-1.29-0.31-2.32-0.71-3.1-1.2c-0.78-0.49-1.17-1.15-1.17-1.98c0-0.65,0.2-1.23,0.6-1.74  c0.4-0.51,1.05-0.91,1.96-1.22c0.91-0.31,2.1-0.46,3.59-0.46c1.67,0,3.39,0.24,5.16,0.73c1.77,0.49,3.57,1.22,5.38,2.2l3.32-7.99  c-1.88-1.09-4.03-1.91-6.44-2.47c-2.41-0.56-4.86-0.84-7.36-0.84c-3.73,0-6.85,0.56-9.35,1.68c-2.5,1.12-4.38,2.61-5.63,4.46  s-1.87,3.91-1.87,6.2c0,2.03,0.4,3.7,1.2,5.03c0.8,1.32,1.83,2.39,3.1,3.21c1.27,0.82,2.67,1.48,4.21,1.98  c1.54,0.51,3.08,0.92,4.62,1.25c1.54,0.33,2.94,0.65,4.21,0.98c1.27,0.33,2.3,0.74,3.1,1.25c0.8,0.51,1.2,1.2,1.2,2.07  c0,0.62-0.21,1.15-0.63,1.6c-0.42,0.45-1.08,0.81-1.98,1.09c-0.91,0.27-2.1,0.41-3.59,0.41c-2.21,0-4.43-0.35-6.66-1.06  c-2.23-0.71-4.19-1.6-5.9-2.69l-3.53,7.94c1.81,1.23,4.16,2.24,7.04,3.02c2.88,0.78,5.88,1.17,9,1.17c3.77,0,6.89-0.56,9.38-1.68  c2.48-1.12,4.35-2.62,5.6-4.48c1.25-1.87,1.88-3.9,1.88-6.11C341.14,161,340.75,159.35,339.97,158.02z"></path>	<path class="st1" d="M389.16,169.11c1.25-1.87,1.88-3.9,1.88-6.11c0-1.99-0.39-3.65-1.17-4.97c-0.78-1.32-1.8-2.39-3.07-3.21  c-1.27-0.81-2.67-1.47-4.21-1.96c-1.54-0.49-3.08-0.9-4.62-1.22c-1.54-0.33-2.95-0.64-4.24-0.95c-1.29-0.31-2.32-0.71-3.1-1.2  c-0.78-0.49-1.17-1.15-1.17-1.98c0-0.65,0.2-1.23,0.6-1.74c0.4-0.51,1.05-0.91,1.96-1.22c0.91-0.31,2.1-0.46,3.59-0.46  c1.67,0,3.39,0.24,5.16,0.73c1.77,0.49,3.57,1.22,5.38,2.2l3.32-7.99c-1.88-1.09-4.03-1.91-6.44-2.47  c-2.41-0.56-4.86-0.84-7.36-0.84c-3.73,0-6.85,0.56-9.35,1.68c-2.5,1.12-4.38,2.61-5.63,4.46c-1.25,1.85-1.87,3.91-1.87,6.2  c0,2.03,0.4,3.7,1.2,5.03c0.8,1.32,1.83,2.39,3.1,3.21c1.27,0.82,2.67,1.48,4.21,1.98c1.54,0.51,3.08,0.92,4.62,1.25  c1.54,0.33,2.94,0.65,4.21,0.98c1.27,0.33,2.3,0.74,3.1,1.25c0.8,0.51,1.2,1.2,1.2,2.07c0,0.62-0.21,1.15-0.63,1.6  c-0.42,0.45-1.08,0.81-1.98,1.09c-0.91,0.27-2.1,0.41-3.59,0.41c-2.21,0-4.43-0.35-6.66-1.06c-2.23-0.71-4.19-1.6-5.9-2.69  l-3.53,7.94c1.81,1.23,4.16,2.24,7.04,3.02c2.88,0.78,5.88,1.17,9,1.17c3.77,0,6.89-0.56,9.38-1.68  C386.04,172.47,387.91,170.98,389.16,169.11z"></path>	<polygon class="st1" points="426.32,125.11 415.99,125.11 408.71,133.37 416.1,133.37  "></polygon>	<path class="st1" d="M422.49,137.18c-2.55-0.98-5.37-1.47-8.45-1.47c-3.04,0-5.85,0.49-8.42,1.47c-2.57,0.98-4.81,2.36-6.71,4.16  c-1.9,1.79-3.38,3.89-4.43,6.28c-1.05,2.39-1.58,5.02-1.58,7.88c0,2.86,0.52,5.49,1.58,7.88c1.05,2.39,2.53,4.48,4.43,6.28  c1.9,1.79,4.14,3.18,6.71,4.16c2.57,0.98,5.38,1.47,8.42,1.47c3.08,0,5.9-0.49,8.45-1.47c2.55-0.98,4.77-2.36,6.66-4.13  c1.88-1.78,3.36-3.87,4.43-6.28c1.07-2.41,1.6-5.05,1.6-7.91c0-2.86-0.54-5.49-1.6-7.88c-1.07-2.39-2.55-4.48-4.43-6.28  C427.26,139.54,425.04,138.16,422.49,137.18z M423.52,159.95c-0.53,1.34-1.25,2.49-2.17,3.45c-0.92,0.96-2.01,1.69-3.26,2.2  c-1.25,0.51-2.6,0.76-4.05,0.76c-1.45,0-2.8-0.25-4.05-0.76c-1.25-0.51-2.34-1.24-3.26-2.2c-0.92-0.96-1.65-2.11-2.17-3.45  c-0.53-1.34-0.79-2.83-0.79-4.46c0-1.67,0.26-3.16,0.79-4.48c0.52-1.32,1.25-2.46,2.17-3.42c0.92-0.96,2.01-1.69,3.26-2.2  c1.25-0.51,2.6-0.76,4.05-0.76c1.45,0,2.8,0.25,4.05,0.76c1.25,0.51,2.34,1.24,3.26,2.2c0.92,0.96,1.65,2.1,2.17,3.42  c0.52,1.32,0.79,2.82,0.79,4.48C424.31,157.13,424.05,158.61,423.52,159.95z"></path>	<polygon class="st1" points="450.7,136.47 439.94,136.47 439.94,174.52 468.85,174.52 468.85,165.99 450.7,165.99  "></polygon>	<path class="st1" d="M505.62,141.34c-1.88-1.79-4.1-3.18-6.66-4.16c-2.55-0.98-5.37-1.47-8.45-1.47c-3.04,0-5.85,0.49-8.42,1.47  c-2.57,0.98-4.81,2.36-6.71,4.16c-1.9,1.79-3.38,3.89-4.43,6.28c-1.05,2.39-1.58,5.02-1.58,7.88c0,2.86,0.52,5.49,1.58,7.88  c1.05,2.39,2.53,4.48,4.43,6.28c1.9,1.79,4.14,3.18,6.71,4.16c2.57,0.98,5.38,1.47,8.42,1.47c3.08,0,5.9-0.49,8.45-1.47  c2.55-0.98,4.77-2.36,6.66-4.13c1.88-1.78,3.36-3.87,4.43-6.28c1.07-2.41,1.6-5.05,1.6-7.91c0-2.86-0.54-5.49-1.6-7.88  C508.98,145.22,507.5,143.13,505.62,141.34z M499.99,159.95c-0.53,1.34-1.25,2.49-2.17,3.45c-0.92,0.96-2.01,1.69-3.26,2.2  c-1.25,0.51-2.6,0.76-4.05,0.76c-1.45,0-2.8-0.25-4.05-0.76c-1.25-0.51-2.34-1.24-3.26-2.2c-0.92-0.96-1.65-2.11-2.17-3.45  c-0.53-1.34-0.79-2.83-0.79-4.46c0-1.67,0.26-3.16,0.79-4.48c0.52-1.32,1.25-2.46,2.17-3.42c0.92-0.96,2.01-1.69,3.26-2.2  c1.25-0.51,2.6-0.76,4.05-0.76c1.45,0,2.8,0.25,4.05,0.76c1.25,0.51,2.34,1.24,3.26,2.2c0.92,0.96,1.65,2.1,2.17,3.42  c0.52,1.32,0.79,2.82,0.79,4.48C500.78,157.13,500.52,158.61,499.99,159.95z"></path>	<path class="st1" d="M564.26,158c1.38-2.1,2.07-4.58,2.07-7.45c0-2.9-0.69-5.41-2.07-7.53c-1.38-2.12-3.32-3.74-5.84-4.86  c-2.52-1.12-5.52-1.68-9-1.68h-17.39v38.05h10.76v-9.95h6.63c3.48,0,6.48-0.57,9-1.71C560.94,161.72,562.89,160.1,564.26,158z   M553.8,154.63c-1.11,0.98-2.78,1.47-5.03,1.47h-5.98v-11.14h5.98c2.25,0,3.92,0.49,5.03,1.47c1.1,0.98,1.66,2.36,1.66,4.13  C555.46,152.29,554.91,153.65,553.8,154.63z"></path>	<path class="st1" d="M609.49,163.4c1.07-2.41,1.6-5.05,1.6-7.91c0-2.86-0.54-5.49-1.6-7.88c-1.07-2.39-2.55-4.48-4.43-6.28  c-1.88-1.79-4.1-3.18-6.66-4.16c-2.55-0.98-5.37-1.47-8.45-1.47c-3.04,0-5.85,0.49-8.42,1.47c-2.57,0.98-4.81,2.36-6.71,4.16  c-1.9,1.79-3.38,3.89-4.43,6.28c-1.05,2.39-1.58,5.02-1.58,7.88c0,2.86,0.52,5.49,1.58,7.88c1.05,2.39,2.53,4.48,4.43,6.28  c1.9,1.79,4.14,3.18,6.71,4.16c2.57,0.98,5.38,1.47,8.42,1.47c3.08,0,5.9-0.49,8.45-1.47c2.55-0.98,4.77-2.36,6.66-4.13  C606.94,167.91,608.42,165.81,609.49,163.4z M599.43,159.95c-0.53,1.34-1.25,2.49-2.17,3.45c-0.92,0.96-2.01,1.69-3.26,2.2  c-1.25,0.51-2.6,0.76-4.05,0.76c-1.45,0-2.8-0.25-4.05-0.76c-1.25-0.51-2.34-1.24-3.26-2.2c-0.92-0.96-1.65-2.11-2.17-3.45  c-0.53-1.34-0.79-2.83-0.79-4.46c0-1.67,0.26-3.16,0.79-4.48c0.52-1.32,1.25-2.46,2.17-3.42c0.92-0.96,2.01-1.69,3.26-2.2  c1.25-0.51,2.6-0.76,4.05-0.76c1.45,0,2.8,0.25,4.05,0.76c1.25,0.51,2.34,1.24,3.26,2.2c0.92,0.96,1.65,2.1,2.17,3.42  c0.52,1.32,0.79,2.82,0.79,4.48C600.22,157.13,599.96,158.61,599.43,159.95z"></path>	<path class="st1" d="M648.08,157.97c1.38-2.08,2.07-4.56,2.07-7.42c0-2.9-0.69-5.41-2.07-7.53c-1.38-2.12-3.32-3.74-5.84-4.86  c-2.52-1.12-5.52-1.68-9-1.68h-17.39v38.05h10.76v-10.11h5.87l6.9,10.11h11.52l-8.23-11.99  C644.97,161.43,646.78,159.92,648.08,157.97z M637.61,146.42c1.1,0.98,1.66,2.36,1.66,4.13c0,1.74-0.55,3.1-1.66,4.08  c-1.11,0.98-2.78,1.47-5.03,1.47h-5.98v-11.14h5.98C634.83,144.95,636.51,145.44,637.61,146.42z"></path>	<polygon class="st1" points="698.73,136.47 688.17,161.27 677.86,136.47 666.23,136.47 682.48,174.52 693.08,174.52 709.38,136.47    "></polygon>	<polygon class="st1" points="722.24,159.25 739.15,159.25 739.15,151.2 722.24,151.2 722.24,144.79 741.43,144.79 741.43,136.47   711.59,136.47 711.59,174.52 742.14,174.52 742.14,166.2 722.24,166.2  "></polygon>	<path class="st1" d="M774.46,162.52c2.3-1.09,4.11-2.6,5.4-4.56c1.38-2.08,2.07-4.56,2.07-7.42c0-2.9-0.69-5.41-2.07-7.53  c-1.38-2.12-3.32-3.74-5.84-4.86c-2.52-1.12-5.52-1.68-9-1.68h-17.39v38.05h10.76v-10.11h5.87l6.9,10.11h11.52L774.46,162.52z   M769.4,146.42c1.1,0.98,1.66,2.36,1.66,4.13c0,1.74-0.55,3.1-1.66,4.08c-1.11,0.98-2.78,1.47-5.03,1.47h-5.98v-11.14h5.98  C766.62,144.95,768.3,145.44,769.4,146.42z"></path>	<polygon class="st1" points="814.27,174.52 824.87,174.52 841.18,136.47 830.52,136.47 819.96,161.27 809.65,136.47 798.02,136.47    "></polygon>	<rect x="843.38" y="136.47" class="st1" width="10.76" height="38.05"></rect>	<polygon class="st1" points="843.44,133.37 850.83,133.37 861.05,125.11 850.72,125.11  "></polygon>	<path class="st1" d="M897.77,165.58c1.79-2.84,2.69-6.21,2.69-10.08c0-3.91-0.9-7.28-2.69-10.11c-1.79-2.83-4.29-5.02-7.47-6.58  c-3.19-1.56-6.88-2.34-11.09-2.34h-17.99v38.05h17.99c4.2,0,7.9-0.78,11.09-2.34C893.48,170.62,895.97,168.42,897.77,165.58z   M888.23,161.12c-0.91,1.58-2.17,2.77-3.78,3.59c-1.61,0.82-3.51,1.22-5.68,1.22h-6.79v-20.87h6.79c2.17,0,4.07,0.41,5.68,1.22  c1.61,0.81,2.87,2,3.78,3.56c0.91,1.56,1.36,3.44,1.36,5.65C889.59,157.67,889.13,159.54,888.23,161.12z"></path>	<polygon class="st1" points="935.76,166.2 915.87,166.2 915.87,159.25 932.77,159.25 932.77,151.2 915.87,151.2 915.87,144.79   935.05,144.79 935.05,136.47 905.21,136.47 905.21,174.52 935.76,174.52  "></polygon>	<path class="st1" d="M974.64,141.34c-1.88-1.79-4.1-3.18-6.66-4.16c-2.55-0.98-5.37-1.47-8.45-1.47c-3.04,0-5.85,0.49-8.42,1.47  c-2.57,0.98-4.81,2.36-6.71,4.16c-1.9,1.79-3.38,3.89-4.43,6.28c-1.05,2.39-1.58,5.02-1.58,7.88c0,2.86,0.52,5.49,1.58,7.88  c1.05,2.39,2.53,4.48,4.43,6.28c1.9,1.79,4.14,3.18,6.71,4.16c2.57,0.98,5.38,1.47,8.42,1.47c3.08,0,5.9-0.49,8.45-1.47  c2.55-0.98,4.77-2.36,6.66-4.13s3.36-3.87,4.43-6.28c1.07-2.41,1.6-5.05,1.6-7.91c0-2.86-0.53-5.49-1.6-7.88  C978,145.22,976.53,143.13,974.64,141.34z M969.02,159.95c-0.52,1.34-1.25,2.49-2.17,3.45c-0.92,0.96-2.01,1.69-3.26,2.2  c-1.25,0.51-2.6,0.76-4.05,0.76c-1.45,0-2.8-0.25-4.05-0.76c-1.25-0.51-2.34-1.24-3.26-2.2c-0.92-0.96-1.65-2.11-2.17-3.45  c-0.53-1.34-0.79-2.83-0.79-4.46c0-1.67,0.26-3.16,0.79-4.48c0.52-1.32,1.25-2.46,2.17-3.42c0.92-0.96,2.01-1.69,3.26-2.2  c1.25-0.51,2.6-0.76,4.05-0.76c1.45,0,2.8,0.25,4.05,0.76c1.25,0.51,2.34,1.24,3.26,2.2c0.92,0.96,1.65,2.1,2.17,3.42  c0.52,1.32,0.79,2.82,0.79,4.48C969.8,157.13,969.54,158.61,969.02,159.95z"></path>	<path class="st1" d="M1011.32,154.82c-1.27-0.81-2.67-1.47-4.21-1.96c-1.54-0.49-3.08-0.9-4.62-1.22  c-1.54-0.33-2.95-0.64-4.24-0.95c-1.29-0.31-2.32-0.71-3.1-1.2c-0.78-0.49-1.17-1.15-1.17-1.98c0-0.65,0.2-1.23,0.6-1.74  c0.4-0.51,1.05-0.91,1.96-1.22c0.91-0.31,2.1-0.46,3.59-0.46c1.67,0,3.39,0.24,5.16,0.73c1.78,0.49,3.57,1.22,5.38,2.2l3.32-7.99  c-1.89-1.09-4.03-1.91-6.44-2.47c-2.41-0.56-4.86-0.84-7.36-0.84c-3.73,0-6.85,0.56-9.35,1.68c-2.5,1.12-4.38,2.61-5.63,4.46  c-1.25,1.85-1.87,3.91-1.87,6.2c0,2.03,0.4,3.7,1.2,5.03c0.8,1.32,1.83,2.39,3.1,3.21c1.27,0.82,2.67,1.48,4.21,1.98  c1.54,0.51,3.08,0.92,4.62,1.25c1.54,0.33,2.94,0.65,4.21,0.98c1.27,0.33,2.3,0.74,3.1,1.25c0.8,0.51,1.2,1.2,1.2,2.07  c0,0.62-0.21,1.15-0.63,1.6c-0.42,0.45-1.08,0.81-1.98,1.09c-0.91,0.27-2.1,0.41-3.59,0.41c-2.21,0-4.43-0.35-6.66-1.06  c-2.23-0.71-4.19-1.6-5.9-2.69l-3.53,7.94c1.81,1.23,4.16,2.24,7.04,3.02c2.88,0.78,5.88,1.17,9,1.17c3.77,0,6.89-0.56,9.38-1.68  c2.48-1.12,4.35-2.62,5.6-4.48c1.25-1.87,1.87-3.9,1.87-6.11c0-1.99-0.39-3.65-1.17-4.97  C1013.61,156.7,1012.59,155.63,1011.32,154.82z"></path>	<polygon class="st0" points="133.41,219.64 150.31,219.64 150.31,211.59 133.41,211.59 133.41,205.18 152.6,205.18 152.6,196.86   122.76,196.86 122.76,234.91 153.3,234.91 153.3,226.59 133.41,226.59  "></polygon>	<polygon class="st0" points="184.46,217.14 167.66,196.86 158.8,196.86 158.8,234.91 169.35,234.91 169.35,214.63 186.14,234.91   195,234.91 195,196.86 184.46,196.86  "></polygon>	<path class="st0" d="M243.32,215.21c-1.27-0.81-2.67-1.47-4.21-1.96c-1.54-0.49-3.08-0.9-4.62-1.22c-1.54-0.33-2.95-0.64-4.24-0.95  c-1.29-0.31-2.32-0.71-3.1-1.2c-0.78-0.49-1.17-1.15-1.17-1.98c0-0.65,0.2-1.23,0.6-1.74c0.4-0.51,1.05-0.91,1.96-1.22  c0.91-0.31,2.1-0.46,3.59-0.46c1.67,0,3.39,0.24,5.16,0.73c1.77,0.49,3.57,1.22,5.38,2.2l3.32-7.99c-1.88-1.09-4.03-1.91-6.44-2.47  c-2.41-0.56-4.86-0.84-7.36-0.84c-3.73,0-6.85,0.56-9.35,1.68c-2.5,1.12-4.38,2.61-5.63,4.46s-1.87,3.91-1.87,6.2  c0,2.03,0.4,3.7,1.2,5.03c0.8,1.32,1.83,2.39,3.1,3.21c1.27,0.82,2.67,1.48,4.21,1.98c1.54,0.51,3.08,0.92,4.62,1.25  c1.54,0.33,2.94,0.65,4.21,0.98c1.27,0.33,2.3,0.74,3.1,1.25c0.8,0.51,1.2,1.2,1.2,2.07c0,0.62-0.21,1.15-0.63,1.6  c-0.42,0.45-1.08,0.81-1.98,1.09c-0.91,0.27-2.1,0.41-3.59,0.41c-2.21,0-4.43-0.35-6.66-1.06s-4.19-1.6-5.9-2.69l-3.53,7.94  c1.81,1.23,4.16,2.24,7.04,3.02c2.88,0.78,5.88,1.17,9,1.17c3.77,0,6.89-0.56,9.38-1.68c2.48-1.12,4.35-2.62,5.6-4.48  c1.25-1.87,1.88-3.9,1.88-6.11c0-1.99-0.39-3.65-1.17-4.97C245.61,217.09,244.59,216.02,243.32,215.21z"></path>	<path class="st0" d="M276.46,217.63c0,3.26-0.63,5.6-1.9,7.01c-1.27,1.41-3.03,2.12-5.27,2.12c-2.25,0-4.01-0.71-5.3-2.12  c-1.29-1.41-1.93-3.75-1.93-7.01v-20.76h-10.76v21.09c0,5.65,1.58,10.02,4.73,13.1c3.15,3.08,7.54,4.62,13.15,4.62  c5.62,0,10-1.54,13.15-4.62c3.15-3.08,4.73-7.45,4.73-13.1v-21.09h-10.6V217.63z"></path>	<path class="st0" d="M319.57,215.21c-1.27-0.81-2.67-1.47-4.21-1.96c-1.54-0.49-3.08-0.9-4.62-1.22c-1.54-0.33-2.95-0.64-4.24-0.95  c-1.29-0.31-2.32-0.71-3.1-1.2c-0.78-0.49-1.17-1.15-1.17-1.98c0-0.65,0.2-1.23,0.6-1.74c0.4-0.51,1.05-0.91,1.96-1.22  c0.91-0.31,2.1-0.46,3.59-0.46c1.67,0,3.39,0.24,5.16,0.73c1.77,0.49,3.57,1.22,5.38,2.2l3.32-7.99c-1.88-1.09-4.03-1.91-6.44-2.47  c-2.41-0.56-4.86-0.84-7.36-0.84c-3.73,0-6.85,0.56-9.35,1.68c-2.5,1.12-4.38,2.61-5.63,4.46s-1.87,3.91-1.87,6.2  c0,2.03,0.4,3.7,1.2,5.03c0.8,1.32,1.83,2.39,3.1,3.21c1.27,0.82,2.67,1.48,4.21,1.98c1.54,0.51,3.08,0.92,4.62,1.25  c1.54,0.33,2.94,0.65,4.21,0.98c1.27,0.33,2.3,0.74,3.1,1.25c0.8,0.51,1.2,1.2,1.2,2.07c0,0.62-0.21,1.15-0.63,1.6  c-0.42,0.45-1.08,0.81-1.98,1.09c-0.91,0.27-2.1,0.41-3.59,0.41c-2.21,0-4.43-0.35-6.66-1.06c-2.23-0.71-4.19-1.6-5.9-2.69  l-3.53,7.94c1.81,1.23,4.16,2.24,7.04,3.02c2.88,0.78,5.88,1.17,9,1.17c3.77,0,6.89-0.56,9.38-1.68c2.48-1.12,4.35-2.62,5.6-4.48  c1.25-1.87,1.88-3.9,1.88-6.11c0-1.99-0.39-3.65-1.17-4.97C321.87,217.09,320.84,216.02,319.57,215.21z"></path>	<polygon class="st0" points="339.9,205.4 351.59,205.4 351.59,234.91 362.35,234.91 362.35,205.4 373.98,205.4 373.98,196.86   339.9,196.86  "></polygon>	<polygon class="st0" points="387.29,219.64 404.19,219.64 404.19,211.59 387.29,211.59 387.29,205.18 406.48,205.18 406.48,196.86   376.64,196.86 376.64,234.91 407.18,234.91 407.18,226.59 387.29,226.59  "></polygon>	<polygon class="st0" points="423.45,196.86 412.68,196.86 412.68,234.91 441.6,234.91 441.6,226.38 423.45,226.38  "></polygon>	<polygon class="st0" points="453.98,193.77 461.37,193.77 471.59,185.5 461.26,185.5  "></polygon>	<polygon class="st0" points="455.01,219.64 471.92,219.64 471.92,211.59 455.01,211.59 455.01,205.18 474.2,205.18 474.2,196.86   444.36,196.86 444.36,234.91 474.91,234.91 474.91,226.59 455.01,226.59  "></polygon>	<polygon class="st0" points="480.41,234.91 491.17,234.91 491.17,221.87 507.96,221.87 507.96,213.55 491.17,213.55 491.17,205.18   510.25,205.18 510.25,196.86 480.41,196.86  "></polygon>	<path class="st0" d="M547.96,201.73c-1.88-1.79-4.1-3.18-6.66-4.16c-2.55-0.98-5.37-1.47-8.45-1.47c-3.04,0-5.85,0.49-8.42,1.47  c-2.57,0.98-4.81,2.36-6.71,4.16c-1.9,1.79-3.38,3.89-4.43,6.28c-1.05,2.39-1.58,5.02-1.58,7.88c0,2.86,0.52,5.49,1.58,7.88  c1.05,2.39,2.53,4.48,4.43,6.28c1.9,1.79,4.14,3.18,6.71,4.16c2.57,0.98,5.38,1.47,8.42,1.47c3.08,0,5.9-0.49,8.45-1.47  c2.55-0.98,4.77-2.36,6.66-4.13c1.88-1.78,3.36-3.87,4.43-6.28c1.07-2.41,1.6-5.05,1.6-7.91c0-2.86-0.54-5.49-1.6-7.88  C551.32,205.61,549.84,203.52,547.96,201.73z M542.33,220.34c-0.53,1.34-1.25,2.49-2.17,3.45c-0.92,0.96-2.01,1.69-3.26,2.2  c-1.25,0.51-2.6,0.76-4.05,0.76c-1.45,0-2.8-0.25-4.05-0.76c-1.25-0.51-2.34-1.24-3.26-2.2c-0.92-0.96-1.65-2.11-2.17-3.45  c-0.53-1.34-0.79-2.83-0.79-4.46c0-1.67,0.26-3.16,0.79-4.48c0.52-1.32,1.25-2.46,2.17-3.42c0.92-0.96,2.01-1.69,3.26-2.2  c1.25-0.51,2.6-0.76,4.05-0.76c1.45,0,2.8,0.25,4.05,0.76c1.25,0.51,2.34,1.24,3.26,2.2c0.92,0.96,1.65,2.1,2.17,3.42  c0.52,1.32,0.79,2.82,0.79,4.48C543.12,217.52,542.85,219,542.33,220.34z"></path>	<polygon class="st0" points="584.4,217.14 567.6,196.86 558.74,196.86 558.74,234.91 569.29,234.91 569.29,214.63 586.08,234.91   594.94,234.91 594.94,196.86 584.4,196.86  "></polygon>	<path class="st0" d="M636.07,201.73c-1.88-1.79-4.1-3.18-6.66-4.16c-2.55-0.98-5.37-1.47-8.45-1.47c-3.04,0-5.85,0.49-8.42,1.47  c-2.57,0.98-4.81,2.36-6.71,4.16c-1.9,1.79-3.38,3.89-4.43,6.28c-1.05,2.39-1.58,5.02-1.58,7.88c0,2.86,0.52,5.49,1.58,7.88  c1.05,2.39,2.53,4.48,4.43,6.28c1.9,1.79,4.14,3.18,6.71,4.16c2.57,0.98,5.38,1.47,8.42,1.47c3.08,0,5.9-0.49,8.45-1.47  c2.55-0.98,4.77-2.36,6.66-4.13c1.88-1.78,3.36-3.87,4.43-6.28c1.07-2.41,1.6-5.05,1.6-7.91c0-2.86-0.54-5.49-1.6-7.88  C639.43,205.61,637.95,203.52,636.07,201.73z M630.44,220.34c-0.53,1.34-1.25,2.49-2.17,3.45c-0.92,0.96-2.01,1.69-3.26,2.2  c-1.25,0.51-2.6,0.76-4.05,0.76c-1.45,0-2.8-0.25-4.05-0.76c-1.25-0.51-2.34-1.24-3.26-2.2c-0.92-0.96-1.65-2.11-2.17-3.45  c-0.53-1.34-0.79-2.83-0.79-4.46c0-1.67,0.26-3.16,0.79-4.48c0.52-1.32,1.25-2.46,2.17-3.42c0.92-0.96,2.01-1.69,3.26-2.2  c1.25-0.51,2.6-0.76,4.05-0.76c1.45,0,2.8,0.25,4.05,0.76c1.25,0.51,2.34,1.24,3.26,2.2c0.92,0.96,1.65,2.1,2.17,3.42  c0.52,1.32,0.79,2.82,0.79,4.48C631.23,217.52,630.96,219,630.44,220.34z"></path>	<path class="st0" d="M672.74,215.21c-1.27-0.81-2.67-1.47-4.21-1.96c-1.54-0.49-3.08-0.9-4.62-1.22c-1.54-0.33-2.95-0.64-4.24-0.95  c-1.29-0.31-2.32-0.71-3.1-1.2c-0.78-0.49-1.17-1.15-1.17-1.98c0-0.65,0.2-1.23,0.6-1.74c0.4-0.51,1.05-0.91,1.96-1.22  c0.91-0.31,2.1-0.46,3.59-0.46c1.67,0,3.39,0.24,5.16,0.73c1.77,0.49,3.57,1.22,5.38,2.2l3.32-7.99c-1.88-1.09-4.03-1.91-6.44-2.47  c-2.41-0.56-4.86-0.84-7.36-0.84c-3.73,0-6.85,0.56-9.35,1.68c-2.5,1.12-4.38,2.61-5.63,4.46s-1.87,3.91-1.87,6.2  c0,2.03,0.4,3.7,1.2,5.03c0.8,1.32,1.83,2.39,3.1,3.21c1.27,0.82,2.67,1.48,4.21,1.98c1.54,0.51,3.08,0.92,4.62,1.25  c1.54,0.33,2.94,0.65,4.21,0.98c1.27,0.33,2.3,0.74,3.1,1.25c0.8,0.51,1.2,1.2,1.2,2.07c0,0.62-0.21,1.15-0.63,1.6  c-0.42,0.45-1.08,0.81-1.98,1.09c-0.91,0.27-2.1,0.41-3.59,0.41c-2.21,0-4.43-0.35-6.66-1.06s-4.19-1.6-5.9-2.69l-3.53,7.94  c1.81,1.23,4.16,2.24,7.04,3.02c2.88,0.78,5.88,1.17,9,1.17c3.77,0,6.89-0.56,9.38-1.68c2.48-1.12,4.35-2.62,5.6-4.48  c1.25-1.87,1.88-3.9,1.88-6.11c0-1.99-0.39-3.65-1.17-4.97C675.03,217.09,674.01,216.02,672.74,215.21z"></path>	<polygon class="st0" points="731.93,196.86 718.91,218.85 705.52,196.86 696.66,196.86 696.66,234.91 706.6,234.91 706.6,215.29   716.33,231.16 721.11,231.16 730.91,214.72 731.01,234.91 740.9,234.91 740.79,196.86  "></polygon>	<polygon class="st0" points="761.47,193.77 768.86,193.77 779.08,185.5 768.75,185.5  "></polygon>	<path class="st0" d="M781.91,201.73c-1.88-1.79-4.1-3.18-6.66-4.16c-2.55-0.98-5.37-1.47-8.45-1.47c-3.04,0-5.85,0.49-8.42,1.47  c-2.57,0.98-4.81,2.36-6.71,4.16c-1.9,1.79-3.38,3.89-4.43,6.28c-1.05,2.39-1.58,5.02-1.58,7.88c0,2.86,0.52,5.49,1.58,7.88  c1.05,2.39,2.53,4.48,4.43,6.28c1.9,1.79,4.14,3.18,6.71,4.16c2.57,0.98,5.38,1.47,8.42,1.47c3.08,0,5.9-0.49,8.45-1.47  c2.55-0.98,4.77-2.36,6.66-4.13c1.88-1.78,3.36-3.87,4.43-6.28c1.07-2.41,1.6-5.05,1.6-7.91c0-2.86-0.54-5.49-1.6-7.88  C785.27,205.61,783.79,203.52,781.91,201.73z M776.28,220.34c-0.53,1.34-1.25,2.49-2.17,3.45c-0.92,0.96-2.01,1.69-3.26,2.2  c-1.25,0.51-2.6,0.76-4.05,0.76c-1.45,0-2.8-0.25-4.05-0.76c-1.25-0.51-2.34-1.24-3.26-2.2c-0.92-0.96-1.65-2.11-2.17-3.45  c-0.53-1.34-0.79-2.83-0.79-4.46c0-1.67,0.26-3.16,0.79-4.48c0.52-1.32,1.25-2.46,2.17-3.42c0.92-0.96,2.01-1.69,3.26-2.2  c1.25-0.51,2.6-0.76,4.05-0.76c1.45,0,2.8,0.25,4.05,0.76c1.25,0.51,2.34,1.24,3.26,2.2c0.92,0.96,1.65,2.1,2.17,3.42  c0.52,1.32,0.79,2.82,0.79,4.48C777.07,217.52,776.81,219,776.28,220.34z"></path>	<polygon class="st0" points="808.16,221.66 797.85,196.86 786.22,196.86 802.47,234.91 813.07,234.91 829.37,196.86 818.72,196.86    "></polygon>	<rect x="831.57" y="196.86" class="st0" width="10.76" height="38.05"></rect>	<polygon class="st0" points="860.02,196.86 849.26,196.86 849.26,234.91 878.17,234.91 878.17,226.38 860.02,226.38  "></polygon>	<polygon class="st0" points="891.59,219.64 908.49,219.64 908.49,211.59 891.59,211.59 891.59,205.18 910.77,205.18 910.77,196.86   880.93,196.86 880.93,234.91 911.48,234.91 911.48,226.59 891.59,226.59  "></polygon>	<path class="st0" d="M943.08,215.21c-1.27-0.81-2.67-1.47-4.21-1.96c-1.54-0.49-3.08-0.9-4.62-1.22c-1.54-0.33-2.95-0.64-4.24-0.95  c-1.29-0.31-2.32-0.71-3.1-1.2c-0.78-0.49-1.17-1.15-1.17-1.98c0-0.65,0.2-1.23,0.6-1.74c0.4-0.51,1.05-0.91,1.96-1.22  c0.91-0.31,2.1-0.46,3.59-0.46c1.67,0,3.39,0.24,5.16,0.73c1.78,0.49,3.57,1.22,5.38,2.2l3.32-7.99c-1.89-1.09-4.03-1.91-6.44-2.47  c-2.41-0.56-4.86-0.84-7.36-0.84c-3.73,0-6.85,0.56-9.35,1.68c-2.5,1.12-4.38,2.61-5.63,4.46c-1.25,1.85-1.87,3.91-1.87,6.2  c0,2.03,0.4,3.7,1.2,5.03c0.8,1.32,1.83,2.39,3.1,3.21c1.27,0.82,2.67,1.48,4.21,1.98c1.54,0.51,3.08,0.92,4.62,1.25  c1.54,0.33,2.94,0.65,4.21,0.98c1.27,0.33,2.3,0.74,3.1,1.25c0.8,0.51,1.2,1.2,1.2,2.07c0,0.62-0.21,1.15-0.63,1.6  c-0.42,0.45-1.08,0.81-1.98,1.09c-0.91,0.27-2.1,0.41-3.59,0.41c-2.21,0-4.43-0.35-6.66-1.06s-4.19-1.6-5.9-2.69l-3.53,7.94  c1.81,1.23,4.16,2.24,7.04,3.02c2.88,0.78,5.88,1.17,9,1.17c3.77,0,6.89-0.56,9.38-1.68c2.48-1.12,4.35-2.62,5.6-4.48  c1.25-1.87,1.87-3.9,1.87-6.11c0-1.99-0.39-3.65-1.17-4.97S944.35,216.02,943.08,215.21z"></path>	<path class="st0" d="M956.59,223.17c-1.74,0-3.21,0.55-4.4,1.66c-1.2,1.11-1.79,2.58-1.79,4.43c0,1.78,0.6,3.24,1.79,4.4  c1.2,1.16,2.66,1.74,4.4,1.74c1.74,0,3.21-0.58,4.4-1.74c1.2-1.16,1.79-2.63,1.79-4.4c0-1.85-0.6-3.32-1.79-4.43  C959.8,223.72,958.33,223.17,956.59,223.17z"></path></g></svg>