<svg xmlns="http://www.w3.org/2000/svg" xmlns:xlink="http://www.w3.org/1999/xlink" id="Camada_1" x="0px" y="0px" viewBox="0 0 1920 200" style="enable-background:new 0 0 1920 200;" xml:space="preserve"><style type="text/css">	.st0{fill:#FFFFFF;}	.st1{fill:#5BC93E;}</style><g>	<path class="st0" d="M43.35,17.69c-3.66-1.79-7.9-2.68-12.71-2.68H10v43.63h20.63c4.82,0,9.06-0.89,12.71-2.68  c3.66-1.79,6.51-4.31,8.57-7.57C53.97,45.12,55,41.27,55,36.82c0-4.49-1.03-8.35-3.09-11.59C49.86,21.99,47,19.48,43.35,17.69z   M40.98,43.28c-1.04,1.81-2.48,3.18-4.33,4.11c-1.85,0.94-4.02,1.4-6.51,1.4h-7.79V24.86h7.79c2.49,0,4.66,0.47,6.51,1.4  c1.85,0.93,3.29,2.3,4.33,4.08c1.04,1.79,1.56,3.95,1.56,6.48C42.53,39.32,42.02,41.47,40.98,43.28z"></path>	<polygon class="st0" points="72.67,41.13 92.05,41.13 92.05,31.9 72.67,31.9 72.67,24.55 94.67,24.55 94.67,15.01 60.45,15.01   60.45,58.64 95.48,58.64 95.48,49.1 72.67,49.1  "></polygon>	<path class="st0" d="M131.72,36.04c-1.45-0.93-3.06-1.68-4.83-2.24c-1.77-0.56-3.53-1.03-5.3-1.4c-1.77-0.37-3.39-0.74-4.86-1.09  c-1.48-0.35-2.66-0.81-3.55-1.37c-0.89-0.56-1.34-1.32-1.34-2.27c0-0.75,0.23-1.41,0.69-2c0.46-0.58,1.2-1.05,2.24-1.4  c1.04-0.35,2.41-0.53,4.11-0.53c1.91,0,3.88,0.28,5.92,0.84c2.04,0.56,4.09,1.4,6.17,2.52l3.8-9.16c-2.16-1.25-4.62-2.19-7.39-2.84  c-2.76-0.64-5.58-0.97-8.45-0.97c-4.28,0-7.85,0.64-10.72,1.93c-2.87,1.29-5.02,2.99-6.45,5.11s-2.15,4.49-2.15,7.11  c0,2.33,0.46,4.25,1.37,5.77c0.91,1.52,2.1,2.74,3.55,3.68c1.45,0.94,3.06,1.69,4.83,2.27c1.77,0.58,3.53,1.06,5.3,1.43  c1.77,0.37,3.38,0.75,4.83,1.12c1.45,0.37,2.64,0.85,3.55,1.43c0.91,0.58,1.37,1.37,1.37,2.37c0,0.71-0.24,1.32-0.72,1.84  c-0.48,0.52-1.24,0.93-2.27,1.25c-1.04,0.31-2.41,0.47-4.11,0.47c-2.53,0-5.08-0.41-7.64-1.22c-2.56-0.81-4.81-1.84-6.76-3.09  l-4.05,9.1c2.08,1.41,4.77,2.57,8.07,3.46c3.3,0.89,6.74,1.34,10.32,1.34c4.32,0,7.9-0.64,10.75-1.93c2.85-1.29,4.99-3,6.42-5.14  c1.43-2.14,2.15-4.48,2.15-7.01c0-2.28-0.45-4.19-1.34-5.7C134.35,38.21,133.17,36.98,131.72,36.04z"></path>	<path class="st0" d="M145.7,53.15c2.14,2.04,4.67,3.6,7.6,4.71c2.93,1.1,6.12,1.65,9.57,1.65c4.03,0,7.64-0.72,10.81-2.15  c3.18-1.43,5.83-3.46,7.95-6.08l-7.85-7.11c-1.41,1.66-2.96,2.93-4.64,3.8c-1.68,0.87-3.56,1.31-5.64,1.31  c-1.79,0-3.43-0.29-4.92-0.87c-1.5-0.58-2.77-1.42-3.83-2.52c-1.06-1.1-1.89-2.42-2.49-3.96c-0.6-1.54-0.9-3.24-0.9-5.11  c0-1.87,0.3-3.57,0.9-5.11c0.6-1.54,1.43-2.86,2.49-3.96c1.06-1.1,2.34-1.94,3.83-2.52c1.5-0.58,3.14-0.87,4.92-0.87  c2.08,0,3.96,0.44,5.64,1.31c1.68,0.87,3.23,2.14,4.64,3.8l7.85-7.1c-2.12-2.66-4.77-4.7-7.95-6.11  c-3.18-1.41-6.78-2.12-10.81-2.12c-3.45,0-6.64,0.55-9.57,1.65c-2.93,1.1-5.46,2.67-7.6,4.71c-2.14,2.04-3.81,4.44-5.02,7.2  c-1.21,2.76-1.81,5.81-1.81,9.13c0,3.33,0.6,6.37,1.81,9.13C141.89,48.72,143.56,51.12,145.7,53.15z"></path>	<path class="st0" d="M220.47,54.21c3.61-3.53,5.42-8.54,5.42-15.02V15.01h-12.15v23.81c0,3.74-0.73,6.42-2.18,8.04  c-1.45,1.62-3.47,2.43-6.05,2.43c-2.58,0-4.6-0.81-6.08-2.43c-1.48-1.62-2.21-4.3-2.21-8.04V15.01h-12.34v24.18  c0,6.48,1.81,11.49,5.42,15.02c3.62,3.53,8.64,5.3,15.08,5.3C211.82,59.51,216.85,57.75,220.47,54.21z"></path>	<path class="st0" d="M270.39,55.49c3.05-2.1,4.58-5.04,4.58-8.82c0-2.53-0.63-4.68-1.9-6.45c-1.27-1.77-3.04-3.12-5.33-4.05  c-0.27-0.11-0.57-0.2-0.86-0.29c1.75-0.93,3.16-2.11,4.19-3.57c1.18-1.68,1.78-3.65,1.78-5.89c0-3.41-1.41-6.16-4.24-8.26  c-2.83-2.1-7.11-3.15-12.84-3.15h-22.31v43.63h23.56C262.88,58.64,267.34,57.59,270.39,55.49z M254.15,23.92  c2.08,0,3.64,0.34,4.67,1.03c1.04,0.69,1.56,1.73,1.56,3.15c0,1.41-0.52,2.47-1.56,3.18c-1.04,0.71-2.6,1.06-4.67,1.06h-8.48v-8.41  H254.15z M245.68,49.73v-8.85h10.35c2.12,0,3.73,0.36,4.83,1.09c1.1,0.73,1.65,1.84,1.65,3.34s-0.55,2.61-1.65,3.33  c-1.1,0.73-2.71,1.09-4.83,1.09H245.68z"></path>	<path class="st0" d="M293,47.05h6.74l7.91,11.59h13.21l-9.44-13.75c2.63-1.25,4.72-2.98,6.2-5.23c1.58-2.39,2.37-5.22,2.37-8.51  c0-3.32-0.79-6.2-2.37-8.63s-3.81-4.29-6.7-5.58c-2.89-1.29-6.33-1.93-10.32-1.93h-19.95v43.63H293V47.05z M305.62,26.42  c1.27,1.12,1.9,2.7,1.9,4.74c0,2-0.63,3.55-1.9,4.68c-1.27,1.12-3.19,1.68-5.77,1.68H293V24.73h6.86  C302.43,24.73,304.35,25.29,305.62,26.42z"></path>	<path class="st0" d="M356.57,50.16l3.4,8.48h12.84l-19.32-43.63h-12.15l-19.26,43.63h12.59l3.4-8.48H356.57z M341.72,41.06  l5.6-13.95l5.6,13.95H341.72z"></path>	<path class="st0" d="M407.22,15.01l-19.26,43.63h12.59l3.4-8.48h18.5l3.4,8.48h12.84l-19.32-43.63H407.22z M407.6,41.06l5.6-13.95  l5.6,13.95H407.6z"></path>	<polygon class="st0" points="470.35,41.62 470.35,58.64 482.69,58.64 482.69,15.01 470.35,15.01 470.35,31.4 453.52,31.4   453.52,15.01 441.18,15.01 441.18,58.64 453.52,58.64 453.52,41.62  "></polygon>	<path class="st0" d="M495.17,53.06c2.18,2.06,4.75,3.65,7.7,4.77c2.95,1.12,6.17,1.68,9.66,1.68c3.53,0,6.76-0.56,9.69-1.68  c2.93-1.12,5.47-2.7,7.64-4.74c2.16-2.04,3.85-4.44,5.08-7.2c1.23-2.76,1.84-5.79,1.84-9.07c0-3.28-0.61-6.29-1.84-9.04  c-1.23-2.74-2.92-5.14-5.08-7.2c-2.16-2.06-4.71-3.65-7.64-4.77c-2.93-1.12-6.16-1.68-9.69-1.68c-3.49,0-6.71,0.56-9.66,1.68  c-2.95,1.12-5.52,2.71-7.7,4.77c-2.18,2.06-3.88,4.46-5.08,7.2c-1.21,2.74-1.81,5.76-1.81,9.04c0,3.28,0.6,6.3,1.81,9.04  C491.29,48.6,492.98,51,495.17,53.06z M501.65,31.68c0.6-1.52,1.43-2.82,2.49-3.93c1.06-1.1,2.31-1.94,3.74-2.52  c1.43-0.58,2.98-0.87,4.64-0.87c1.66,0,3.21,0.29,4.64,0.87c1.43,0.58,2.68,1.42,3.74,2.52c1.06,1.1,1.89,2.41,2.49,3.93  c0.6,1.52,0.9,3.23,0.9,5.14c0,1.87-0.3,3.57-0.9,5.11c-0.6,1.54-1.43,2.86-2.49,3.96c-1.06,1.1-2.31,1.94-3.74,2.52  c-1.43,0.58-2.98,0.87-4.64,0.87c-1.66,0-3.21-0.29-4.64-0.87c-1.43-0.58-2.68-1.42-3.74-2.52c-1.06-1.1-1.89-2.42-2.49-3.96  c-0.6-1.54-0.9-3.24-0.9-5.11C500.74,34.91,501.04,33.2,501.65,31.68z"></path>	<path class="st0" d="M554.56,47.05h6.74l7.91,11.59h13.21l-9.44-13.75c2.63-1.25,4.72-2.98,6.2-5.23c1.58-2.39,2.37-5.22,2.37-8.51  c0-3.32-0.79-6.2-2.37-8.63s-3.81-4.29-6.7-5.58c-2.89-1.29-6.33-1.93-10.32-1.93h-19.95v43.63h12.34V47.05z M567.18,26.42  c1.27,1.12,1.9,2.7,1.9,4.74c0,2-0.63,3.55-1.9,4.68c-1.27,1.12-3.19,1.68-5.77,1.68h-6.86V24.73h6.86  C563.99,24.73,565.92,25.29,567.18,26.42z"></path>	<path class="st0" d="M599.64,50.16h18.5l3.4,8.48h12.84l-19.32-43.63H602.9l-19.26,43.63h12.59L599.64,50.16z M603.29,41.06  l5.6-13.95l5.6,13.95H603.29z"></path>	<path class="st0" d="M659.34,53.15c2.14,2.04,4.67,3.6,7.6,4.71c2.93,1.1,6.12,1.65,9.57,1.65c4.03,0,7.64-0.72,10.81-2.15  c3.18-1.43,5.83-3.46,7.95-6.08l-7.85-7.11c-1.41,1.66-2.96,2.93-4.64,3.8c-1.68,0.87-3.56,1.31-5.64,1.31  c-1.79,0-3.43-0.29-4.92-0.87c-1.5-0.58-2.77-1.42-3.83-2.52c-1.06-1.1-1.89-2.42-2.49-3.96c-0.6-1.54-0.9-3.24-0.9-5.11  c0-1.87,0.3-3.57,0.9-5.11c0.6-1.54,1.43-2.86,2.49-3.96c1.06-1.1,2.34-1.94,3.83-2.52c1.5-0.58,3.14-0.87,4.92-0.87  c2.08,0,3.96,0.44,5.64,1.31c1.68,0.87,3.23,2.14,4.64,3.8l7.85-7.1c-2.12-2.66-4.77-4.7-7.95-6.11  c-3.18-1.41-6.78-2.12-10.81-2.12c-3.45,0-6.64,0.55-9.57,1.65c-2.93,1.1-5.46,2.67-7.6,4.71c-2.14,2.04-3.81,4.44-5.02,7.2  c-1.21,2.76-1.81,5.81-1.81,9.13c0,3.33,0.6,6.37,1.81,9.13C655.53,48.72,657.2,51.12,659.34,53.15z"></path>	<path class="st0" d="M702.97,53.06c2.18,2.06,4.75,3.65,7.7,4.77c2.95,1.12,6.17,1.68,9.66,1.68c3.53,0,6.76-0.56,9.69-1.68  c2.93-1.12,5.47-2.7,7.64-4.74c2.16-2.04,3.85-4.44,5.08-7.2c1.23-2.76,1.84-5.79,1.84-9.07c0-3.28-0.61-6.29-1.84-9.04  c-1.23-2.74-2.92-5.14-5.08-7.2c-2.16-2.06-4.71-3.65-7.64-4.77c-2.93-1.12-6.16-1.68-9.69-1.68c-3.49,0-6.71,0.56-9.66,1.68  c-2.95,1.12-5.52,2.71-7.7,4.77c-2.18,2.06-3.88,4.46-5.08,7.2c-1.21,2.74-1.81,5.76-1.81,9.04c0,3.28,0.6,6.3,1.81,9.04  C699.1,48.6,700.79,51,702.97,53.06z M709.46,31.68c0.6-1.52,1.43-2.82,2.49-3.93c1.06-1.1,2.31-1.94,3.74-2.52  c1.43-0.58,2.98-0.87,4.64-0.87c1.66,0,3.21,0.29,4.64,0.87c1.43,0.58,2.68,1.42,3.74,2.52c1.06,1.1,1.89,2.41,2.49,3.93  c0.6,1.52,0.9,3.23,0.9,5.14c0,1.87-0.3,3.57-0.9,5.11c-0.6,1.54-1.43,2.86-2.49,3.96c-1.06,1.1-2.31,1.94-3.74,2.52  c-1.43,0.58-2.98,0.87-4.64,0.87c-1.66,0-3.21-0.29-4.64-0.87c-1.43-0.58-2.68-1.42-3.74-2.52c-1.06-1.1-1.89-2.42-2.49-3.96  c-0.6-1.54-0.9-3.24-0.9-5.11C708.55,34.91,708.85,33.2,709.46,31.68z"></path>	<polygon class="st0" points="734.42,1.98 722.58,1.98 714.22,11.46 722.7,11.46  "></polygon>	<polygon class="st0" points="761.44,36.14 772.59,54.34 778.08,54.34 789.31,35.49 789.42,58.64 800.77,58.64 800.64,15.01   790.48,15.01 775.55,40.22 760.19,15.01 750.03,15.01 750.03,58.64 761.44,58.64  "></polygon>	<path class="st0" d="M813.11,53.06c2.18,2.06,4.75,3.65,7.7,4.77c2.95,1.12,6.17,1.68,9.66,1.68c3.53,0,6.76-0.56,9.69-1.68  c2.93-1.12,5.47-2.7,7.64-4.74c2.16-2.04,3.85-4.44,5.08-7.2c1.23-2.76,1.84-5.79,1.84-9.07c0-3.28-0.61-6.29-1.84-9.04  c-1.23-2.74-2.92-5.14-5.08-7.2c-2.16-2.06-4.71-3.65-7.64-4.77c-2.93-1.12-6.16-1.68-9.69-1.68c-3.49,0-6.71,0.56-9.66,1.68  c-2.95,1.12-5.52,2.71-7.7,4.77c-2.18,2.06-3.88,4.46-5.08,7.2c-1.21,2.74-1.81,5.76-1.81,9.04c0,3.28,0.6,6.3,1.81,9.04  C809.23,48.6,810.92,51,813.11,53.06z M819.59,31.68c0.6-1.52,1.43-2.82,2.49-3.93c1.06-1.1,2.31-1.94,3.74-2.52  c1.43-0.58,2.98-0.87,4.64-0.87c1.66,0,3.21,0.29,4.64,0.87c1.43,0.58,2.68,1.42,3.74,2.52c1.06,1.1,1.89,2.41,2.49,3.93  c0.6,1.52,0.9,3.23,0.9,5.14c0,1.87-0.3,3.57-0.9,5.11c-0.6,1.54-1.43,2.86-2.49,3.96c-1.06,1.1-2.31,1.94-3.74,2.52  c-1.43,0.58-2.98,0.87-4.64,0.87c-1.66,0-3.21-0.29-4.64-0.87c-1.43-0.58-2.68-1.42-3.74-2.52c-1.06-1.1-1.89-2.42-2.49-3.96  c-0.6-1.54-0.9-3.24-0.9-5.11C818.68,34.91,818.98,33.2,819.59,31.68z"></path>	<polygon class="st0" points="911.24,48.85 890.42,48.85 890.42,15.01 878.08,15.01 878.08,58.64 911.24,58.64  "></polygon>	<path class="st0" d="M918.72,53.06c2.18,2.06,4.75,3.65,7.7,4.77c2.95,1.12,6.17,1.68,9.66,1.68c3.53,0,6.76-0.56,9.69-1.68  s5.47-2.7,7.63-4.74c2.16-2.04,3.85-4.44,5.08-7.2c1.23-2.76,1.84-5.79,1.84-9.07c0-3.28-0.61-6.29-1.84-9.04  c-1.23-2.74-2.92-5.14-5.08-7.2s-4.7-3.65-7.63-4.77c-2.93-1.12-6.16-1.68-9.69-1.68c-3.49,0-6.71,0.56-9.66,1.68  c-2.95,1.12-5.52,2.71-7.7,4.77c-2.18,2.06-3.88,4.46-5.08,7.2c-1.21,2.74-1.81,5.76-1.81,9.04c0,3.28,0.6,6.3,1.81,9.04  C914.84,48.6,916.54,51,918.72,53.06z M925.2,31.68c0.6-1.52,1.43-2.82,2.49-3.93c1.06-1.1,2.31-1.94,3.74-2.52  c1.43-0.58,2.98-0.87,4.64-0.87c1.66,0,3.21,0.29,4.64,0.87c1.43,0.58,2.68,1.42,3.74,2.52c1.06,1.1,1.89,2.41,2.49,3.93  c0.6,1.52,0.9,3.23,0.9,5.14c0,1.87-0.3,3.57-0.9,5.11c-0.6,1.54-1.43,2.86-2.49,3.96c-1.06,1.1-2.31,1.94-3.74,2.52  c-1.43,0.58-2.98,0.87-4.64,0.87c-1.66,0-3.21-0.29-4.64-0.87c-1.43-0.58-2.68-1.42-3.74-2.52c-1.06-1.1-1.89-2.42-2.49-3.96  c-0.6-1.54-0.9-3.24-0.9-5.11C924.3,34.91,924.6,33.2,925.2,31.68z"></path>	<path class="st0" d="M985.18,49.45c-1.04,0.31-2.41,0.47-4.11,0.47c-2.53,0-5.08-0.41-7.64-1.22c-2.56-0.81-4.81-1.84-6.76-3.09  l-4.05,9.1c2.08,1.41,4.77,2.57,8.07,3.46c3.3,0.89,6.74,1.34,10.32,1.34c4.32,0,7.9-0.64,10.75-1.93s4.99-3,6.42-5.14  c1.43-2.14,2.15-4.48,2.15-7.01c0-2.28-0.45-4.19-1.34-5.7c-0.89-1.52-2.07-2.74-3.52-3.68c-1.46-0.93-3.06-1.68-4.83-2.24  c-1.77-0.56-3.53-1.03-5.3-1.4c-1.77-0.37-3.39-0.74-4.86-1.09c-1.48-0.35-2.66-0.81-3.55-1.37c-0.89-0.56-1.34-1.32-1.34-2.27  c0-0.75,0.23-1.41,0.69-2c0.46-0.58,1.2-1.05,2.24-1.4c1.04-0.35,2.41-0.53,4.11-0.53c1.91,0,3.89,0.28,5.92,0.84  c2.04,0.56,4.09,1.4,6.17,2.52l3.8-9.16c-2.16-1.25-4.62-2.19-7.39-2.84c-2.76-0.64-5.58-0.97-8.44-0.97  c-4.28,0-7.85,0.64-10.72,1.93c-2.87,1.29-5.02,2.99-6.45,5.11c-1.43,2.12-2.15,4.49-2.15,7.11c0,2.33,0.46,4.25,1.37,5.77  s2.1,2.74,3.55,3.68c1.45,0.94,3.06,1.69,4.83,2.27c1.77,0.58,3.53,1.06,5.3,1.43c1.77,0.37,3.37,0.75,4.83,1.12  c1.45,0.37,2.64,0.85,3.55,1.43c0.91,0.58,1.37,1.37,1.37,2.37c0,0.71-0.24,1.32-0.72,1.84C986.97,48.72,986.21,49.13,985.18,49.45  z"></path>	<path class="st0" d="M1031.55,49.66c-1.37,0-2.68-0.38-3.93-1.15c-1.25-0.77-2.45-1.9-3.61-3.4l-6.73,7.98  c1.7,2.08,3.85,3.67,6.45,4.77c2.6,1.1,5.49,1.65,8.69,1.65c5.48,0,9.66-1.4,12.53-4.21c2.87-2.81,4.3-7.05,4.3-12.75V15.01h-27.3  v9.54h15.08v18.76C1037.03,47.54,1035.2,49.66,1031.55,49.66z"></path>	<polygon class="st0" points="1092.71,1.98 1080.87,1.98 1072.52,11.46 1081,11.46  "></polygon>	<path class="st0" d="M1061.27,53.06c2.18,2.06,4.75,3.65,7.7,4.77c2.95,1.12,6.17,1.68,9.66,1.68c3.53,0,6.76-0.56,9.69-1.68  s5.47-2.7,7.63-4.74c2.16-2.04,3.85-4.44,5.08-7.2c1.23-2.76,1.84-5.79,1.84-9.07c0-3.28-0.61-6.29-1.84-9.04  c-1.23-2.74-2.92-5.14-5.08-7.2s-4.7-3.65-7.63-4.77c-2.93-1.12-6.16-1.68-9.69-1.68c-3.49,0-6.71,0.56-9.66,1.68  c-2.95,1.12-5.52,2.71-7.7,4.77c-2.18,2.06-3.88,4.46-5.08,7.2c-1.21,2.74-1.81,5.76-1.81,9.04c0,3.28,0.6,6.3,1.81,9.04  C1057.39,48.6,1059.09,51,1061.27,53.06z M1067.75,31.68c0.6-1.52,1.43-2.82,2.49-3.93c1.06-1.1,2.31-1.94,3.74-2.52  c1.43-0.58,2.98-0.87,4.64-0.87c1.66,0,3.21,0.29,4.64,0.87c1.43,0.58,2.68,1.42,3.74,2.52c1.06,1.1,1.89,2.41,2.49,3.93  c0.6,1.52,0.9,3.23,0.9,5.14c0,1.87-0.3,3.57-0.9,5.11c-0.6,1.54-1.43,2.86-2.49,3.96c-1.06,1.1-2.31,1.94-3.74,2.52  c-1.43,0.58-2.98,0.87-4.64,0.87c-1.66,0-3.21-0.29-4.64-0.87c-1.43-0.58-2.68-1.42-3.74-2.52c-1.06-1.1-1.89-2.42-2.49-3.96  c-0.6-1.54-0.9-3.24-0.9-5.11C1066.85,34.91,1067.15,33.2,1067.75,31.68z"></path>	<polygon class="st0" points="1131.69,58.64 1150.39,15.01 1138.17,15.01 1126.06,43.45 1114.24,15.01 1100.9,15.01 1119.53,58.64    "></polygon>	<polygon class="st0" points="1187.94,49.1 1165.13,49.1 1165.13,41.13 1184.52,41.13 1184.52,31.9 1165.13,31.9 1165.13,24.55   1187.13,24.55 1187.13,15.01 1152.92,15.01 1152.92,58.64 1187.94,58.64  "></polygon>	<polygon class="st0" points="1206.34,35.39 1225.6,58.64 1235.76,58.64 1235.76,15.01 1223.67,15.01 1223.67,38.26 1204.41,15.01   1194.25,15.01 1194.25,58.64 1206.34,58.64  "></polygon>	<polygon class="st0" points="1278.75,49.1 1255.94,49.1 1255.94,41.13 1275.32,41.13 1275.32,31.9 1255.94,31.9 1255.94,24.55   1277.94,24.55 1277.94,15.01 1243.72,15.01 1243.72,58.64 1278.75,58.64  "></polygon>	<path class="st0" d="M1304.7,49.45c-1.04,0.31-2.41,0.47-4.11,0.47c-2.53,0-5.08-0.41-7.64-1.22c-2.56-0.81-4.81-1.84-6.76-3.09  l-4.05,9.1c2.08,1.41,4.77,2.57,8.07,3.46c3.3,0.89,6.74,1.34,10.32,1.34c4.32,0,7.9-0.64,10.75-1.93c2.85-1.29,4.99-3,6.42-5.14  c1.43-2.14,2.15-4.48,2.15-7.01c0-2.28-0.45-4.19-1.34-5.7c-0.89-1.52-2.07-2.74-3.52-3.68c-1.46-0.93-3.06-1.68-4.83-2.24  c-1.77-0.56-3.53-1.03-5.3-1.4c-1.77-0.37-3.39-0.74-4.86-1.09c-1.48-0.35-2.66-0.81-3.55-1.37c-0.9-0.56-1.34-1.32-1.34-2.27  c0-0.75,0.23-1.41,0.69-2c0.46-0.58,1.2-1.05,2.24-1.4c1.04-0.35,2.41-0.53,4.11-0.53c1.91,0,3.89,0.28,5.92,0.84  c2.04,0.56,4.09,1.4,6.17,2.52l3.8-9.16c-2.16-1.25-4.62-2.19-7.39-2.84c-2.76-0.64-5.58-0.97-8.44-0.97  c-4.28,0-7.85,0.64-10.72,1.93c-2.87,1.29-5.02,2.99-6.45,5.11c-1.43,2.12-2.15,4.49-2.15,7.11c0,2.33,0.46,4.25,1.37,5.77  c0.91,1.52,2.1,2.74,3.55,3.68c1.45,0.94,3.06,1.69,4.83,2.27c1.77,0.58,3.53,1.06,5.3,1.43c1.77,0.37,3.37,0.75,4.83,1.12  c1.45,0.37,2.64,0.85,3.55,1.43c0.91,0.58,1.37,1.37,1.37,2.37c0,0.71-0.24,1.32-0.72,1.84  C1306.5,48.72,1305.74,49.13,1304.7,49.45z"></path>	<polygon class="st0" points="1377.44,49.1 1354.62,49.1 1354.62,41.13 1374.01,41.13 1374.01,31.9 1354.62,31.9 1354.62,24.55   1376.63,24.55 1376.63,15.01 1342.41,15.01 1342.41,58.64 1377.44,58.64  "></polygon>	<path class="st0" d="M1413.67,36.04c-1.46-0.93-3.06-1.68-4.83-2.24c-1.77-0.56-3.53-1.03-5.3-1.4c-1.77-0.37-3.39-0.74-4.86-1.09  c-1.48-0.35-2.66-0.81-3.55-1.37c-0.9-0.56-1.34-1.32-1.34-2.27c0-0.75,0.23-1.41,0.69-2c0.46-0.58,1.2-1.05,2.24-1.4  c1.04-0.35,2.41-0.53,4.11-0.53c1.91,0,3.89,0.28,5.92,0.84c2.04,0.56,4.09,1.4,6.17,2.52l3.8-9.16c-2.16-1.25-4.62-2.19-7.39-2.84  c-2.76-0.64-5.58-0.97-8.44-0.97c-4.28,0-7.85,0.64-10.72,1.93c-2.87,1.29-5.02,2.99-6.45,5.11c-1.43,2.12-2.15,4.49-2.15,7.11  c0,2.33,0.46,4.25,1.37,5.77c0.91,1.52,2.1,2.74,3.55,3.68c1.45,0.94,3.06,1.69,4.83,2.27c1.77,0.58,3.53,1.06,5.3,1.43  c1.77,0.37,3.37,0.75,4.83,1.12c1.45,0.37,2.64,0.85,3.55,1.43c0.91,0.58,1.37,1.37,1.37,2.37c0,0.71-0.24,1.32-0.72,1.84  c-0.48,0.52-1.24,0.93-2.28,1.25c-1.04,0.31-2.41,0.47-4.11,0.47c-2.53,0-5.08-0.41-7.64-1.22s-4.81-1.84-6.76-3.09l-4.05,9.1  c2.08,1.41,4.77,2.57,8.07,3.46c3.3,0.89,6.74,1.34,10.32,1.34c4.32,0,7.9-0.64,10.75-1.93s4.99-3,6.42-5.14  c1.43-2.14,2.15-4.48,2.15-7.01c0-2.28-0.45-4.19-1.34-5.7C1416.3,38.21,1415.13,36.98,1413.67,36.04z"></path>	<polygon class="st0" points="1432.56,58.64 1444.9,58.64 1444.9,24.79 1458.24,24.79 1458.24,15.01 1419.16,15.01 1419.16,24.79   1432.56,24.79  "></polygon>	<polygon class="st0" points="1491.18,1.98 1479.33,1.98 1470.98,11.46 1479.46,11.46  "></polygon>	<path class="st0" d="M1464.31,58.64l3.4-8.48h18.5l3.4,8.48h12.84l-19.32-43.63h-12.15l-19.26,43.63H1464.31z M1471.37,41.06  l5.6-13.95l5.6,13.95H1471.37z"></path>	<polygon class="st0" points="1534.37,38.26 1515.11,15.01 1504.95,15.01 1504.95,58.64 1517.04,58.64 1517.04,35.39 1536.3,58.64   1546.46,58.64 1546.46,15.01 1534.37,15.01  "></polygon>	<path class="st1" d="M1576.66,53.15c2.14,2.04,4.68,3.6,7.64,4.71c2.95,1.1,6.15,1.65,9.6,1.65c3.16,0,6.38-0.48,9.66-1.43  c3.28-0.95,6.17-2.33,8.66-4.11V35.89h-10.91v11.97c-0.44,0.2-0.87,0.38-1.31,0.53c-1.74,0.6-3.53,0.9-5.36,0.9  c-1.83,0-3.5-0.3-5.02-0.9c-1.52-0.6-2.82-1.45-3.9-2.56c-1.08-1.1-1.92-2.42-2.52-3.96c-0.6-1.54-0.9-3.22-0.9-5.05  c0-1.91,0.3-3.62,0.9-5.14c0.6-1.52,1.44-2.82,2.52-3.93c1.08-1.1,2.39-1.94,3.93-2.52c1.54-0.58,3.24-0.87,5.11-0.87  c2.12,0,4.04,0.41,5.77,1.22c1.72,0.81,3.34,2.03,4.83,3.65l7.85-7.1c-2.12-2.58-4.8-4.55-8.04-5.92  c-3.24-1.37-6.92-2.06-11.03-2.06c-3.53,0-6.78,0.55-9.75,1.65c-2.97,1.1-5.54,2.67-7.7,4.71c-2.16,2.04-3.84,4.44-5.05,7.2  c-1.21,2.76-1.81,5.81-1.81,9.13c0,3.33,0.6,6.37,1.81,9.13C1572.84,48.72,1574.52,51.12,1576.66,53.15z"></path>	<path class="st1" d="M1632.73,15.01l-19.26,43.63h12.59l3.4-8.48h18.5l3.4,8.48h12.84l-19.32-43.63H1632.73z M1633.12,41.06  l5.6-13.95l5.6,13.95H1633.12z"></path>	<polygon class="st1" points="1678.79,35.39 1698.05,58.64 1708.21,58.64 1708.21,15.01 1696.12,15.01 1696.12,38.26 1676.86,15.01   1666.7,15.01 1666.7,58.64 1678.79,58.64  "></polygon>	<path class="st1" d="M1730,15.01l-19.26,43.63h12.59l3.4-8.48h18.5l3.4,8.48h12.84l-19.32-43.63H1730z M1730.38,41.06l5.6-13.95  l5.6,13.95H1730.38z"></path>	<polygon class="st1" points="1793.39,38.26 1774.13,15.01 1763.97,15.01 1763.97,58.64 1776.06,58.64 1776.06,35.39 1795.32,58.64   1805.48,58.64 1805.48,15.01 1793.39,15.01  "></polygon>	<path class="st1" d="M1846.78,17.69c-3.66-1.79-7.89-2.68-12.71-2.68h-20.63v43.63h20.63c4.82,0,9.06-0.89,12.71-2.68  c3.66-1.79,6.51-4.31,8.57-7.57c2.06-3.26,3.08-7.12,3.08-11.56c0-4.49-1.03-8.35-3.08-11.59  C1853.3,21.99,1850.44,19.48,1846.78,17.69z M1844.41,43.28c-1.04,1.81-2.48,3.18-4.33,4.11c-1.85,0.94-4.02,1.4-6.51,1.4h-7.79  V24.86h7.79c2.49,0,4.66,0.47,6.51,1.4c1.85,0.93,3.29,2.3,4.33,4.08c1.04,1.79,1.56,3.95,1.56,6.48  C1845.97,39.32,1845.45,41.47,1844.41,43.28z"></path>	<path class="st1" d="M1908.16,27.79c-1.23-2.74-2.92-5.14-5.08-7.2s-4.7-3.65-7.63-4.77c-2.93-1.12-6.16-1.68-9.69-1.68  c-3.49,0-6.71,0.56-9.66,1.68c-2.95,1.12-5.52,2.71-7.7,4.77c-2.18,2.06-3.88,4.46-5.08,7.2c-1.21,2.74-1.81,5.76-1.81,9.04  c0,3.28,0.6,6.3,1.81,9.04c1.2,2.74,2.9,5.14,5.08,7.2c2.18,2.06,4.75,3.65,7.7,4.77c2.95,1.12,6.17,1.68,9.66,1.68  c3.53,0,6.76-0.56,9.69-1.68c2.93-1.12,5.47-2.7,7.63-4.74c2.16-2.04,3.85-4.44,5.08-7.2c1.23-2.76,1.84-5.79,1.84-9.07  C1910,33.54,1909.39,30.53,1908.16,27.79z M1896.63,41.94c-0.6,1.54-1.43,2.86-2.49,3.96c-1.06,1.1-2.31,1.94-3.74,2.52  c-1.43,0.58-2.98,0.87-4.64,0.87c-1.66,0-3.21-0.29-4.64-0.87c-1.43-0.58-2.68-1.42-3.74-2.52c-1.06-1.1-1.89-2.42-2.49-3.96  c-0.6-1.54-0.9-3.24-0.9-5.11c0-1.91,0.3-3.62,0.9-5.14c0.6-1.52,1.43-2.82,2.49-3.93c1.06-1.1,2.31-1.94,3.74-2.52  c1.43-0.58,2.98-0.87,4.64-0.87c1.66,0,3.21,0.29,4.64,0.87c1.43,0.58,2.68,1.42,3.74,2.52c1.06,1.1,1.89,2.41,2.49,3.93  c0.6,1.52,0.9,3.23,0.9,5.14C1897.53,38.69,1897.23,40.4,1896.63,41.94z"></path>	<polygon class="st1" points="179.52,84.26 164.59,109.47 149.23,84.26 139.07,84.26 139.07,127.89 150.48,127.89 150.48,105.39   161.64,123.59 167.12,123.59 178.35,104.74 178.46,127.89 189.81,127.89 189.68,84.26  "></polygon>	<rect x="197.73" y="84.26" class="st1" width="12.34" height="43.63"></rect>	<polygon class="st1" points="230.36,84.26 218.02,84.26 218.02,127.89 251.17,127.89 251.17,118.11 230.36,118.11  "></polygon>	<polygon class="st1" points="266.55,110.38 285.94,110.38 285.94,101.15 266.55,101.15 266.55,93.8 288.56,93.8 288.56,84.26   254.34,84.26 254.34,127.89 289.37,127.89 289.37,118.36 266.55,118.36  "></polygon>	<path class="st1" d="M325.6,105.3c-1.45-0.93-3.06-1.68-4.83-2.24c-1.77-0.56-3.53-1.03-5.3-1.4c-1.77-0.37-3.39-0.74-4.86-1.09  c-1.48-0.35-2.66-0.81-3.55-1.37c-0.89-0.56-1.34-1.32-1.34-2.27c0-0.75,0.23-1.41,0.69-2c0.46-0.58,1.2-1.05,2.24-1.4  c1.04-0.35,2.41-0.53,4.11-0.53c1.91,0,3.88,0.28,5.92,0.84c2.04,0.56,4.09,1.4,6.17,2.52l3.8-9.16c-2.16-1.25-4.62-2.19-7.39-2.84  c-2.76-0.64-5.58-0.97-8.45-0.97c-4.28,0-7.85,0.64-10.72,1.93c-2.87,1.29-5.02,2.99-6.45,5.11c-1.43,2.12-2.15,4.49-2.15,7.11  c0,2.33,0.46,4.25,1.37,5.77c0.91,1.52,2.1,2.74,3.55,3.68c1.45,0.94,3.06,1.69,4.83,2.27c1.77,0.58,3.53,1.06,5.3,1.43  c1.77,0.37,3.38,0.75,4.83,1.12c1.45,0.37,2.64,0.85,3.55,1.43c0.91,0.58,1.37,1.37,1.37,2.37c0,0.71-0.24,1.32-0.72,1.84  c-0.48,0.52-1.24,0.93-2.27,1.25c-1.04,0.31-2.41,0.47-4.11,0.47c-2.53,0-5.08-0.41-7.64-1.22c-2.56-0.81-4.81-1.84-6.76-3.09  l-4.05,9.1c2.08,1.41,4.77,2.57,8.07,3.46c3.3,0.89,6.74,1.34,10.32,1.34c4.32,0,7.9-0.64,10.75-1.93c2.85-1.29,4.99-3,6.42-5.14  c1.43-2.14,2.15-4.48,2.15-7.01c0-2.28-0.45-4.19-1.34-5.7C328.23,107.46,327.06,106.23,325.6,105.3z"></path>	<path class="st1" d="M386.37,86.94c-3.66-1.79-7.9-2.68-12.71-2.68h-20.63v43.63h20.63c4.82,0,9.06-0.89,12.71-2.68  c3.66-1.79,6.51-4.31,8.57-7.57c2.06-3.26,3.09-7.12,3.09-11.56c0-4.49-1.03-8.35-3.09-11.59  C392.88,91.24,390.03,88.73,386.37,86.94z M384,112.53c-1.04,1.81-2.48,3.18-4.33,4.11c-1.85,0.94-4.02,1.4-6.51,1.4h-7.79V94.11  h7.79c2.49,0,4.66,0.47,6.51,1.4c1.85,0.93,3.29,2.3,4.33,4.08c1.04,1.79,1.56,3.95,1.56,6.48  C385.56,108.57,385.04,110.72,384,112.53z"></path>	<polygon class="st1" points="415.7,110.38 435.08,110.38 435.08,101.15 415.7,101.15 415.7,93.8 437.7,93.8 437.7,84.26   403.48,84.26 403.48,127.89 438.51,127.89 438.51,118.36 415.7,118.36  "></polygon>	<path class="st1" d="M495.6,86.94c-3.66-1.79-7.9-2.68-12.71-2.68h-20.63v43.63h20.63c4.82,0,9.06-0.89,12.71-2.68  c3.66-1.79,6.51-4.31,8.57-7.57c2.06-3.26,3.09-7.12,3.09-11.56c0-4.49-1.03-8.35-3.09-11.59  C502.11,91.24,499.25,88.73,495.6,86.94z M493.23,112.53c-1.04,1.81-2.48,3.18-4.33,4.11c-1.85,0.94-4.02,1.4-6.51,1.4h-7.79V94.11  h7.79c2.49,0,4.66,0.47,6.51,1.4c1.85,0.93,3.29,2.3,4.33,4.08c1.04,1.79,1.56,3.95,1.56,6.48  C494.79,108.57,494.27,110.72,493.23,112.53z"></path>	<polygon class="st1" points="536.94,80.71 548.66,71.24 536.81,71.24 528.46,80.71  "></polygon>	<path class="st1" d="M551.9,89.84c-2.16-2.06-4.71-3.65-7.64-4.77c-2.93-1.12-6.16-1.68-9.69-1.68c-3.49,0-6.71,0.56-9.66,1.68  c-2.95,1.12-5.52,2.71-7.7,4.77c-2.18,2.06-3.88,4.46-5.08,7.2c-1.21,2.74-1.81,5.76-1.81,9.04c0,3.28,0.6,6.3,1.81,9.04  c1.2,2.74,2.9,5.14,5.08,7.2c2.18,2.06,4.75,3.65,7.7,4.77c2.95,1.12,6.17,1.68,9.66,1.68c3.53,0,6.76-0.56,9.69-1.68  c2.93-1.12,5.47-2.7,7.64-4.74c2.16-2.04,3.85-4.44,5.08-7.2c1.23-2.76,1.84-5.79,1.84-9.07c0-3.28-0.61-6.29-1.84-9.04  C555.75,94.3,554.06,91.9,551.9,89.84z M545.45,111.19c-0.6,1.54-1.43,2.86-2.49,3.96c-1.06,1.1-2.31,1.94-3.74,2.52  c-1.43,0.58-2.98,0.87-4.64,0.87c-1.66,0-3.21-0.29-4.64-0.87c-1.43-0.58-2.68-1.42-3.74-2.52c-1.06-1.1-1.89-2.42-2.49-3.96  c-0.6-1.54-0.9-3.24-0.9-5.11c0-1.91,0.3-3.62,0.9-5.14c0.6-1.52,1.43-2.82,2.49-3.93c1.06-1.1,2.31-1.94,3.74-2.52  c1.43-0.58,2.98-0.87,4.64-0.87c1.66,0,3.21,0.29,4.64,0.87c1.43,0.58,2.68,1.42,3.74,2.52c1.06,1.1,1.89,2.41,2.49,3.93  c0.6,1.52,0.9,3.23,0.9,5.14C546.35,107.95,546.05,109.65,545.45,111.19z"></path>	<polygon class="st1" points="576.61,84.26 564.27,84.26 564.27,127.89 597.43,127.89 597.43,118.11 576.61,118.11  "></polygon>	<path class="st1" d="M617.42,84.26l-19.26,43.63h12.59l3.4-8.48h18.5l3.4,8.48h12.84l-19.32-43.63H617.42z M617.8,110.32l5.6-13.95  l5.6,13.95H617.8z"></path>	<path class="st1" d="M688.34,108.91c1.58-2.39,2.37-5.22,2.37-8.51c0-3.32-0.79-6.2-2.37-8.63s-3.81-4.29-6.7-5.58  c-2.89-1.29-6.33-1.93-10.32-1.93h-19.95v43.63h12.34V116.3h6.74l7.91,11.59h13.21l-9.44-13.75  C684.78,112.88,686.86,111.16,688.34,108.91z M676.35,95.67c1.27,1.12,1.9,2.7,1.9,4.74c0,2-0.63,3.55-1.9,4.68  c-1.27,1.12-3.19,1.68-5.77,1.68h-6.86V93.99h6.86C673.16,93.99,675.08,94.55,676.35,95.67z"></path>	<polygon class="st1" points="730.85,93.8 730.85,84.26 696.63,84.26 696.63,127.89 731.66,127.89 731.66,118.36 708.85,118.36   708.85,110.38 728.23,110.38 728.23,101.15 708.85,101.15 708.85,93.8  "></polygon>	<path class="st1" d="M771.42,108.98c-0.89-1.52-2.07-2.74-3.52-3.68c-1.45-0.93-3.06-1.68-4.83-2.24c-1.77-0.56-3.53-1.03-5.3-1.4  c-1.77-0.37-3.39-0.74-4.86-1.09c-1.48-0.35-2.66-0.81-3.55-1.37c-0.89-0.56-1.34-1.32-1.34-2.27c0-0.75,0.23-1.41,0.69-2  c0.46-0.58,1.2-1.05,2.24-1.4c1.04-0.35,2.41-0.53,4.11-0.53c1.91,0,3.88,0.28,5.92,0.84c2.04,0.56,4.09,1.4,6.17,2.52l3.8-9.16  c-2.16-1.25-4.62-2.19-7.39-2.84c-2.76-0.64-5.58-0.97-8.45-0.97c-4.28,0-7.85,0.64-10.72,1.93c-2.87,1.29-5.02,2.99-6.45,5.11  c-1.43,2.12-2.15,4.49-2.15,7.11c0,2.33,0.46,4.25,1.37,5.77c0.91,1.52,2.1,2.74,3.55,3.68c1.45,0.94,3.06,1.69,4.83,2.27  c1.77,0.58,3.53,1.06,5.3,1.43c1.77,0.37,3.38,0.75,4.83,1.12c1.45,0.37,2.64,0.85,3.55,1.43c0.91,0.58,1.37,1.37,1.37,2.37  c0,0.71-0.24,1.32-0.72,1.84c-0.48,0.52-1.24,0.93-2.27,1.25c-1.04,0.31-2.41,0.47-4.11,0.47c-2.53,0-5.08-0.41-7.64-1.22  c-2.56-0.81-4.81-1.84-6.76-3.09l-4.05,9.1c2.08,1.41,4.77,2.57,8.07,3.46c3.3,0.89,6.74,1.34,10.32,1.34  c4.32,0,7.9-0.64,10.75-1.93c2.85-1.29,4.99-3,6.42-5.14c1.43-2.14,2.15-4.48,2.15-7.01C772.76,112.39,772.31,110.49,771.42,108.98  z"></path>	<path class="st1" d="M795.16,90.43c-1.43,2.12-2.15,4.49-2.15,7.11c0,2.33,0.46,4.25,1.37,5.77c0.91,1.52,2.1,2.74,3.55,3.68  c1.45,0.94,3.06,1.69,4.83,2.27c1.77,0.58,3.53,1.06,5.3,1.43c1.77,0.37,3.38,0.75,4.83,1.12c1.45,0.37,2.64,0.85,3.55,1.43  c0.91,0.58,1.37,1.37,1.37,2.37c0,0.71-0.24,1.32-0.72,1.84c-0.48,0.52-1.24,0.93-2.27,1.25c-1.04,0.31-2.41,0.47-4.11,0.47  c-2.53,0-5.08-0.41-7.64-1.22c-2.56-0.81-4.81-1.84-6.76-3.09l-4.05,9.1c2.08,1.41,4.77,2.57,8.07,3.46  c3.3,0.89,6.74,1.34,10.32,1.34c4.32,0,7.9-0.64,10.75-1.93c2.85-1.29,4.99-3,6.42-5.14c1.43-2.14,2.15-4.48,2.15-7.01  c0-2.28-0.45-4.19-1.34-5.7c-0.89-1.52-2.07-2.74-3.52-3.68c-1.45-0.93-3.06-1.68-4.83-2.24c-1.77-0.56-3.53-1.03-5.3-1.4  c-1.77-0.37-3.39-0.74-4.86-1.09c-1.48-0.35-2.66-0.81-3.55-1.37c-0.89-0.56-1.34-1.32-1.34-2.27c0-0.75,0.23-1.41,0.69-2  c0.46-0.58,1.2-1.05,2.24-1.4c1.04-0.35,2.41-0.53,4.11-0.53c1.91,0,3.88,0.28,5.92,0.84c2.04,0.56,4.09,1.4,6.17,2.52l3.8-9.16  c-2.16-1.25-4.62-2.19-7.39-2.84c-2.76-0.64-5.58-0.97-8.45-0.97c-4.28,0-7.85,0.64-10.72,1.93  C798.75,86.61,796.6,88.31,795.16,90.43z"></path>	<path class="st1" d="M873.68,122.34c2.16-2.04,3.85-4.44,5.08-7.2c1.23-2.76,1.84-5.79,1.84-9.07c0-3.28-0.61-6.29-1.84-9.04  c-1.23-2.74-2.92-5.14-5.08-7.2c-2.16-2.06-4.7-3.65-7.63-4.77c-2.93-1.12-6.16-1.68-9.69-1.68c-3.49,0-6.71,0.56-9.66,1.68  c-2.95,1.12-5.52,2.71-7.7,4.77c-2.18,2.06-3.88,4.46-5.08,7.2c-1.21,2.74-1.81,5.76-1.81,9.04c0,3.28,0.6,6.3,1.81,9.04  c1.2,2.74,2.9,5.14,5.08,7.2c2.18,2.06,4.75,3.65,7.7,4.77c2.95,1.12,6.17,1.68,9.66,1.68c3.53,0,6.76-0.56,9.69-1.68  C868.97,125.96,871.52,124.38,873.68,122.34z M860.99,117.67c-1.43,0.58-2.98,0.87-4.64,0.87c-1.66,0-3.21-0.29-4.64-0.87  c-1.43-0.58-2.68-1.42-3.74-2.52c-1.06-1.1-1.89-2.42-2.49-3.96c-0.6-1.54-0.9-3.24-0.9-5.11c0-1.91,0.3-3.62,0.9-5.14  c0.6-1.52,1.43-2.82,2.49-3.93c1.06-1.1,2.31-1.94,3.74-2.52c1.43-0.58,2.98-0.87,4.64-0.87c1.66,0,3.21,0.29,4.64,0.87  c1.43,0.58,2.68,1.42,3.74,2.52c1.06,1.1,1.89,2.41,2.49,3.93c0.6,1.52,0.9,3.23,0.9,5.14c0,1.87-0.3,3.57-0.9,5.11  c-0.6,1.54-1.43,2.86-2.49,3.96C863.67,116.25,862.43,117.09,860.99,117.67z"></path>	<polygon class="st1" points="858.72,80.71 870.44,71.24 858.59,71.24 850.24,80.71  "></polygon>	<polygon class="st1" points="886.05,84.26 886.05,127.89 919.21,127.89 919.21,118.11 898.39,118.11 898.39,84.26  "></polygon>	<path class="st1" d="M944.04,83.39c-3.49,0-6.71,0.56-9.66,1.68c-2.95,1.12-5.52,2.71-7.7,4.77c-2.18,2.06-3.88,4.46-5.08,7.2  c-1.21,2.74-1.81,5.76-1.81,9.04c0,3.28,0.6,6.3,1.81,9.04c1.2,2.74,2.9,5.14,5.08,7.2c2.18,2.06,4.75,3.65,7.7,4.77  c2.95,1.12,6.17,1.68,9.66,1.68c3.53,0,6.76-0.56,9.69-1.68c2.93-1.12,5.47-2.7,7.63-4.74c2.16-2.04,3.85-4.44,5.08-7.2  c1.23-2.76,1.84-5.79,1.84-9.07c0-3.28-0.61-6.29-1.84-9.04c-1.23-2.74-2.92-5.14-5.08-7.2c-2.16-2.06-4.7-3.65-7.63-4.77  C950.81,83.95,947.57,83.39,944.04,83.39z M955.82,106.08c0,1.87-0.3,3.57-0.9,5.11c-0.6,1.54-1.43,2.86-2.49,3.96  c-1.06,1.1-2.31,1.94-3.74,2.52c-1.43,0.58-2.98,0.87-4.64,0.87c-1.66,0-3.21-0.29-4.64-0.87c-1.43-0.58-2.68-1.42-3.74-2.52  c-1.06-1.1-1.89-2.42-2.49-3.96c-0.6-1.54-0.9-3.24-0.9-5.11c0-1.91,0.3-3.62,0.9-5.14c0.6-1.52,1.43-2.82,2.49-3.93  c1.06-1.1,2.31-1.94,3.74-2.52c1.43-0.58,2.98-0.87,4.64-0.87c1.66,0,3.21,0.29,4.64,0.87c1.43,0.58,2.68,1.42,3.74,2.52  c1.06,1.1,1.89,2.41,2.49,3.93C955.52,102.45,955.82,104.17,955.82,106.08z"></path>	<path class="st1" d="M1021.92,114.52c2.89-1.31,5.12-3.17,6.7-5.58c1.58-2.41,2.37-5.26,2.37-8.54c0-3.32-0.79-6.2-2.37-8.63  c-1.58-2.43-3.81-4.29-6.7-5.58c-2.89-1.29-6.33-1.93-10.32-1.93h-19.94v43.63H1004v-11.41h7.6  C1015.59,116.49,1019.03,115.83,1021.92,114.52z M1004,106.76V93.99h6.86c2.58,0,4.5,0.56,5.77,1.68c1.27,1.12,1.9,2.7,1.9,4.74  c0,2-0.63,3.55-1.9,4.68c-1.27,1.12-3.19,1.68-5.77,1.68H1004z"></path>	<path class="st1" d="M1067.76,85.07c-2.93-1.12-6.16-1.68-9.69-1.68c-3.49,0-6.71,0.56-9.66,1.68c-2.95,1.12-5.52,2.71-7.7,4.77  c-2.18,2.06-3.88,4.46-5.08,7.2c-1.21,2.74-1.81,5.76-1.81,9.04c0,3.28,0.6,6.3,1.81,9.04c1.2,2.74,2.9,5.14,5.08,7.2  c2.18,2.06,4.75,3.65,7.7,4.77c2.95,1.12,6.17,1.68,9.66,1.68c3.53,0,6.76-0.56,9.69-1.68c2.93-1.12,5.47-2.7,7.63-4.74  s3.85-4.44,5.08-7.2c1.23-2.76,1.84-5.79,1.84-9.07c0-3.28-0.61-6.29-1.84-9.04c-1.23-2.74-2.92-5.14-5.08-7.2  C1073.24,87.78,1070.69,86.19,1067.76,85.07z M1068.95,111.19c-0.6,1.54-1.43,2.86-2.49,3.96c-1.06,1.1-2.31,1.94-3.74,2.52  c-1.43,0.58-2.98,0.87-4.64,0.87c-1.66,0-3.21-0.29-4.64-0.87c-1.43-0.58-2.68-1.42-3.74-2.52c-1.06-1.1-1.89-2.42-2.49-3.96  c-0.6-1.54-0.9-3.24-0.9-5.11c0-1.91,0.3-3.62,0.9-5.14c0.6-1.52,1.43-2.82,2.49-3.93c1.06-1.1,2.31-1.94,3.74-2.52  c1.43-0.58,2.98-0.87,4.64-0.87c1.66,0,3.21,0.29,4.64,0.87c1.43,0.58,2.68,1.42,3.74,2.52c1.06,1.1,1.89,2.41,2.49,3.93  c0.6,1.52,0.9,3.23,0.9,5.14C1069.85,107.95,1069.55,109.65,1068.95,111.19z"></path>	<path class="st1" d="M1127.97,127.89l-9.44-13.75c2.63-1.25,4.72-2.98,6.2-5.23c1.58-2.39,2.37-5.22,2.37-8.51  c0-3.32-0.79-6.2-2.37-8.63c-1.58-2.43-3.81-4.29-6.7-5.58c-2.89-1.29-6.33-1.93-10.32-1.93h-19.94v43.63h12.34V116.3h6.74  l7.91,11.59H1127.97z M1112.73,95.67c1.27,1.12,1.9,2.7,1.9,4.74c0,2-0.63,3.55-1.9,4.68c-1.27,1.12-3.19,1.68-5.77,1.68h-6.86  V93.99h6.86C1109.54,93.99,1111.46,94.55,1112.73,95.67z"></path>	<polygon class="st1" points="1170.71,112.7 1158.88,84.26 1145.55,84.26 1164.18,127.89 1176.33,127.89 1195.03,84.26   1182.82,84.26  "></polygon>	<polygon class="st1" points="1231.78,93.8 1231.78,84.26 1197.56,84.26 1197.56,127.89 1232.59,127.89 1232.59,118.36   1209.78,118.36 1209.78,110.38 1229.16,110.38 1229.16,101.15 1209.78,101.15 1209.78,93.8  "></polygon>	<path class="st1" d="M1269.66,114.14c2.63-1.25,4.72-2.98,6.2-5.23c1.58-2.39,2.37-5.22,2.37-8.51c0-3.32-0.79-6.2-2.37-8.63  c-1.58-2.43-3.81-4.29-6.7-5.58c-2.89-1.29-6.33-1.93-10.32-1.93h-19.94v43.63h12.34V116.3h6.74l7.91,11.59h13.21L1269.66,114.14z   M1263.86,95.67c1.27,1.12,1.9,2.7,1.9,4.74c0,2-0.63,3.55-1.9,4.68c-1.27,1.12-3.19,1.68-5.77,1.68h-6.86V93.99h6.86  C1260.67,93.99,1262.59,94.55,1263.86,95.67z"></path>	<polygon class="st1" points="1321.84,112.7 1310.01,84.26 1296.67,84.26 1315.31,127.89 1327.46,127.89 1346.16,84.26   1333.95,84.26  "></polygon>	<rect x="1348.69" y="84.26" class="st1" width="12.34" height="43.63"></rect>	<polygon class="st1" points="1348.75,80.71 1357.23,80.71 1368.95,71.24 1357.11,71.24  "></polygon>	<path class="st1" d="M1402.49,86.94c-3.66-1.79-7.89-2.68-12.71-2.68h-20.63v43.63h20.63c4.82,0,9.06-0.89,12.71-2.68  c3.66-1.79,6.51-4.31,8.57-7.57c2.06-3.26,3.08-7.12,3.08-11.56c0-4.49-1.03-8.35-3.08-11.59  C1409,91.24,1406.14,88.73,1402.49,86.94z M1400.12,112.53c-1.04,1.81-2.48,3.18-4.33,4.11c-1.85,0.94-4.02,1.4-6.51,1.4h-7.79  V94.11h7.79c2.49,0,4.66,0.47,6.51,1.4c1.85,0.93,3.29,2.3,4.33,4.08c1.04,1.79,1.56,3.95,1.56,6.48  C1401.68,108.57,1401.16,110.72,1400.12,112.53z"></path>	<polygon class="st1" points="1431.81,110.38 1451.2,110.38 1451.2,101.15 1431.81,101.15 1431.81,93.8 1453.81,93.8 1453.81,84.26   1419.6,84.26 1419.6,127.89 1454.62,127.89 1454.62,118.36 1431.81,118.36  "></polygon>	<path class="st1" d="M1499.21,89.84c-2.16-2.06-4.7-3.65-7.63-4.77c-2.93-1.12-6.16-1.68-9.69-1.68c-3.49,0-6.71,0.56-9.66,1.68  c-2.95,1.12-5.52,2.71-7.7,4.77c-2.18,2.06-3.88,4.46-5.08,7.2c-1.21,2.74-1.81,5.76-1.81,9.04c0,3.28,0.6,6.3,1.81,9.04  c1.2,2.74,2.9,5.14,5.08,7.2c2.18,2.06,4.75,3.65,7.7,4.77c2.95,1.12,6.17,1.68,9.66,1.68c3.53,0,6.76-0.56,9.69-1.68  c2.93-1.12,5.47-2.7,7.63-4.74s3.85-4.44,5.08-7.2c1.23-2.76,1.84-5.79,1.84-9.07c0-3.28-0.61-6.29-1.84-9.04  C1503.06,94.3,1501.37,91.9,1499.21,89.84z M1492.76,111.19c-0.6,1.54-1.43,2.86-2.49,3.96c-1.06,1.1-2.31,1.94-3.74,2.52  c-1.43,0.58-2.98,0.87-4.64,0.87c-1.66,0-3.21-0.29-4.64-0.87c-1.43-0.58-2.68-1.42-3.74-2.52c-1.06-1.1-1.89-2.42-2.49-3.96  c-0.6-1.54-0.9-3.24-0.9-5.11c0-1.91,0.3-3.62,0.9-5.14c0.6-1.52,1.43-2.82,2.49-3.93c1.06-1.1,2.31-1.94,3.74-2.52  c1.43-0.58,2.98-0.87,4.64-0.87c1.66,0,3.21,0.29,4.64,0.87c1.43,0.58,2.68,1.42,3.74,2.52c1.06,1.1,1.89,2.41,2.49,3.93  c0.6,1.52,0.9,3.23,0.9,5.14C1493.66,107.95,1493.36,109.65,1492.76,111.19z"></path>	<path class="st1" d="M1541.27,105.3c-1.46-0.93-3.06-1.68-4.83-2.24c-1.77-0.56-3.53-1.03-5.3-1.4c-1.77-0.37-3.39-0.74-4.86-1.09  c-1.48-0.35-2.66-0.81-3.55-1.37c-0.9-0.56-1.34-1.32-1.34-2.27c0-0.75,0.23-1.41,0.69-2c0.46-0.58,1.2-1.05,2.24-1.4  c1.04-0.35,2.41-0.53,4.11-0.53c1.91,0,3.89,0.28,5.92,0.84c2.04,0.56,4.09,1.4,6.17,2.52l3.8-9.16c-2.16-1.25-4.62-2.19-7.39-2.84  c-2.76-0.64-5.58-0.97-8.44-0.97c-4.28,0-7.85,0.64-10.72,1.93c-2.87,1.29-5.02,2.99-6.45,5.11c-1.43,2.12-2.15,4.49-2.15,7.11  c0,2.33,0.46,4.25,1.37,5.77c0.91,1.52,2.1,2.74,3.55,3.68c1.45,0.94,3.06,1.69,4.83,2.27c1.77,0.58,3.53,1.06,5.3,1.43  c1.77,0.37,3.37,0.75,4.83,1.12c1.45,0.37,2.64,0.85,3.55,1.43c0.91,0.58,1.37,1.37,1.37,2.37c0,0.71-0.24,1.32-0.72,1.84  c-0.48,0.52-1.24,0.93-2.28,1.25c-1.04,0.31-2.41,0.47-4.11,0.47c-2.54,0-5.08-0.41-7.64-1.22c-2.56-0.81-4.81-1.84-6.76-3.09  l-4.05,9.1c2.08,1.41,4.77,2.57,8.07,3.46c3.3,0.89,6.74,1.34,10.32,1.34c4.32,0,7.9-0.64,10.75-1.93c2.85-1.29,4.99-3,6.42-5.14  c1.43-2.14,2.15-4.48,2.15-7.01c0-2.28-0.45-4.19-1.34-5.7C1543.9,107.46,1542.72,106.23,1541.27,105.3z"></path>	<polygon class="st0" points="1580.91,110.38 1600.29,110.38 1600.29,101.15 1580.91,101.15 1580.91,93.8 1602.91,93.8   1602.91,84.26 1568.69,84.26 1568.69,127.89 1603.72,127.89 1603.72,118.36 1580.91,118.36  "></polygon>	<polygon class="st0" points="1639.45,107.51 1620.19,84.26 1610.03,84.26 1610.03,127.89 1622.12,127.89 1622.12,104.64   1641.38,127.89 1651.54,127.89 1651.54,84.26 1639.45,84.26  "></polygon>	<path class="st0" d="M1706.95,105.3c-1.46-0.93-3.06-1.68-4.83-2.24c-1.77-0.56-3.53-1.03-5.3-1.4c-1.77-0.37-3.39-0.74-4.86-1.09  c-1.48-0.35-2.66-0.81-3.55-1.37c-0.89-0.56-1.34-1.32-1.34-2.27c0-0.75,0.23-1.41,0.69-2c0.46-0.58,1.2-1.05,2.24-1.4  c1.04-0.35,2.41-0.53,4.11-0.53c1.91,0,3.89,0.28,5.92,0.84c2.04,0.56,4.09,1.4,6.17,2.52l3.8-9.16c-2.16-1.25-4.62-2.19-7.39-2.84  c-2.76-0.64-5.58-0.97-8.44-0.97c-4.28,0-7.85,0.64-10.72,1.93c-2.87,1.29-5.02,2.99-6.45,5.11c-1.43,2.12-2.15,4.49-2.15,7.11  c0,2.33,0.46,4.25,1.37,5.77c0.91,1.52,2.1,2.74,3.55,3.68c1.45,0.94,3.06,1.69,4.83,2.27c1.77,0.58,3.53,1.06,5.3,1.43  c1.77,0.37,3.37,0.75,4.83,1.12c1.45,0.37,2.64,0.85,3.55,1.43c0.91,0.58,1.37,1.37,1.37,2.37c0,0.71-0.24,1.32-0.72,1.84  c-0.48,0.52-1.24,0.93-2.28,1.25c-1.04,0.31-2.41,0.47-4.11,0.47c-2.54,0-5.08-0.41-7.64-1.22c-2.56-0.81-4.81-1.84-6.76-3.09  l-4.05,9.1c2.08,1.41,4.77,2.57,8.07,3.46c3.3,0.89,6.74,1.34,10.32,1.34c4.32,0,7.9-0.64,10.75-1.93c2.85-1.29,4.99-3,6.42-5.14  c1.43-2.14,2.15-4.48,2.15-7.01c0-2.28-0.45-4.19-1.34-5.7C1709.57,107.46,1708.4,106.23,1706.95,105.3z"></path>	<path class="st0" d="M1744.95,108.07c0,3.74-0.73,6.42-2.18,8.04c-1.46,1.62-3.47,2.43-6.05,2.43c-2.58,0-4.6-0.81-6.08-2.43  c-1.48-1.62-2.21-4.3-2.21-8.04V84.26h-12.34v24.18c0,6.48,1.81,11.49,5.42,15.02c3.61,3.53,8.64,5.3,15.08,5.3  c6.44,0,11.47-1.77,15.08-5.3c3.61-3.53,5.42-8.54,5.42-15.02V84.26h-12.15V108.07z"></path>	<path class="st0" d="M1794.39,105.3c-1.46-0.93-3.06-1.68-4.83-2.24c-1.77-0.56-3.53-1.03-5.3-1.4c-1.77-0.37-3.39-0.74-4.86-1.09  c-1.48-0.35-2.66-0.81-3.55-1.37c-0.89-0.56-1.34-1.32-1.34-2.27c0-0.75,0.23-1.41,0.69-2c0.46-0.58,1.2-1.05,2.24-1.4  c1.04-0.35,2.41-0.53,4.11-0.53c1.91,0,3.89,0.28,5.92,0.84c2.04,0.56,4.09,1.4,6.17,2.52l3.8-9.16c-2.16-1.25-4.62-2.19-7.39-2.84  c-2.76-0.64-5.58-0.97-8.44-0.97c-4.28,0-7.85,0.64-10.72,1.93c-2.87,1.29-5.02,2.99-6.45,5.11c-1.43,2.12-2.15,4.49-2.15,7.11  c0,2.33,0.46,4.25,1.37,5.77c0.91,1.52,2.1,2.74,3.55,3.68c1.45,0.94,3.06,1.69,4.83,2.27c1.77,0.58,3.53,1.06,5.3,1.43  c1.77,0.37,3.37,0.75,4.83,1.12c1.45,0.37,2.64,0.85,3.55,1.43c0.91,0.58,1.37,1.37,1.37,2.37c0,0.71-0.24,1.32-0.72,1.84  c-0.48,0.52-1.24,0.93-2.28,1.25c-1.04,0.31-2.41,0.47-4.11,0.47c-2.53,0-5.08-0.41-7.64-1.22c-2.56-0.81-4.81-1.84-6.76-3.09  l-4.05,9.1c2.08,1.41,4.77,2.57,8.07,3.46c3.3,0.89,6.74,1.34,10.32,1.34c4.32,0,7.9-0.64,10.75-1.93c2.85-1.29,4.99-3,6.42-5.14  c1.43-2.14,2.15-4.48,2.15-7.01c0-2.28-0.45-4.19-1.34-5.7C1797.02,107.46,1795.84,106.23,1794.39,105.3z"></path>	<polygon class="st0" points="609.75,163.3 623.15,163.3 623.15,197.14 635.49,197.14 635.49,163.3 648.83,163.3 648.83,153.52   609.75,153.52  "></polygon>	<polygon class="st0" points="664.09,179.63 683.47,179.63 683.47,170.41 664.09,170.41 664.09,163.05 686.09,163.05 686.09,153.52   651.87,153.52 651.87,197.14 686.9,197.14 686.9,187.61 664.09,187.61  "></polygon>	<polygon class="st0" points="705.55,153.52 693.21,153.52 693.21,197.14 726.37,197.14 726.37,187.36 705.55,187.36  "></polygon>	<polygon class="st0" points="741.75,179.63 761.13,179.63 761.13,170.41 741.75,170.41 741.75,163.05 763.75,163.05 763.75,153.52   729.53,153.52 729.53,197.14 764.56,197.14 764.56,187.61 741.75,187.61  "></polygon>	<polygon class="st0" points="748.92,140.49 740.56,149.96 749.04,149.96 760.76,140.49  "></polygon>	<polygon class="st0" points="770.87,197.14 783.21,197.14 783.21,182.19 802.47,182.19 802.47,172.65 783.21,172.65 783.21,163.05   805.08,163.05 805.08,153.52 770.87,153.52  "></polygon>	<path class="st0" d="M848.33,159.09c-2.16-2.06-4.71-3.65-7.64-4.77c-2.93-1.12-6.16-1.68-9.69-1.68c-3.49,0-6.71,0.56-9.66,1.68  c-2.95,1.12-5.52,2.71-7.7,4.77c-2.18,2.06-3.88,4.46-5.08,7.2c-1.21,2.74-1.81,5.76-1.81,9.04c0,3.28,0.6,6.3,1.81,9.04  c1.2,2.74,2.9,5.14,5.08,7.2c2.18,2.06,4.75,3.65,7.7,4.77c2.95,1.12,6.17,1.68,9.66,1.68c3.53,0,6.76-0.56,9.69-1.68  c2.93-1.12,5.47-2.7,7.64-4.74c2.16-2.04,3.85-4.44,5.08-7.2c1.23-2.76,1.84-5.79,1.84-9.07c0-3.28-0.61-6.29-1.84-9.04  C852.18,163.55,850.49,161.15,848.33,159.09z M841.88,180.44c-0.6,1.54-1.43,2.86-2.49,3.96c-1.06,1.1-2.31,1.94-3.74,2.52  c-1.43,0.58-2.98,0.87-4.64,0.87c-1.66,0-3.21-0.29-4.64-0.87c-1.43-0.58-2.68-1.42-3.74-2.52c-1.06-1.1-1.89-2.42-2.49-3.96  c-0.6-1.54-0.9-3.24-0.9-5.11c0-1.91,0.3-3.62,0.9-5.14c0.6-1.52,1.43-2.82,2.49-3.93c1.06-1.1,2.31-1.94,3.74-2.52  c1.43-0.58,2.98-0.87,4.64-0.87c1.66,0,3.21,0.29,4.64,0.87c1.43,0.58,2.68,1.42,3.74,2.52c1.06,1.1,1.89,2.41,2.49,3.93  c0.6,1.52,0.9,3.23,0.9,5.14C842.78,177.2,842.48,178.9,841.88,180.44z"></path>	<polygon class="st0" points="890.12,176.77 870.86,153.52 860.7,153.52 860.7,197.14 872.79,197.14 872.79,173.89 892.05,197.14   902.21,197.14 902.21,153.52 890.12,153.52  "></polygon>	<path class="st0" d="M949.37,159.09c-2.16-2.06-4.7-3.65-7.63-4.77c-2.93-1.12-6.16-1.68-9.69-1.68c-3.49,0-6.71,0.56-9.66,1.68  c-2.95,1.12-5.52,2.71-7.7,4.77c-2.18,2.06-3.88,4.46-5.08,7.2c-1.21,2.74-1.81,5.76-1.81,9.04c0,3.28,0.6,6.3,1.81,9.04  c1.2,2.74,2.9,5.14,5.08,7.2c2.18,2.06,4.75,3.65,7.7,4.77c2.95,1.12,6.17,1.68,9.66,1.68c3.53,0,6.76-0.56,9.69-1.68  c2.93-1.12,5.47-2.7,7.63-4.74c2.16-2.04,3.85-4.44,5.08-7.2c1.23-2.76,1.84-5.79,1.84-9.07c0-3.28-0.61-6.29-1.84-9.04  C953.22,163.55,951.53,161.15,949.37,159.09z M942.91,180.44c-0.6,1.54-1.43,2.86-2.49,3.96c-1.06,1.1-2.31,1.94-3.74,2.52  c-1.43,0.58-2.98,0.87-4.64,0.87c-1.66,0-3.21-0.29-4.64-0.87c-1.43-0.58-2.68-1.42-3.74-2.52c-1.06-1.1-1.89-2.42-2.49-3.96  c-0.6-1.54-0.9-3.24-0.9-5.11c0-1.91,0.3-3.62,0.9-5.14c0.6-1.52,1.43-2.82,2.49-3.93c1.06-1.1,2.31-1.94,3.74-2.52  c1.43-0.58,2.98-0.87,4.64-0.87c1.66,0,3.21,0.29,4.64,0.87c1.43,0.58,2.68,1.42,3.74,2.52c1.06,1.1,1.89,2.41,2.49,3.93  c0.6,1.52,0.9,3.23,0.9,5.14C943.82,177.2,943.52,178.9,942.91,180.44z"></path>	<path class="st0" d="M991.42,174.55c-1.46-0.93-3.06-1.68-4.83-2.24c-1.77-0.56-3.53-1.03-5.3-1.4c-1.77-0.37-3.39-0.74-4.86-1.09  c-1.48-0.35-2.66-0.81-3.55-1.37c-0.89-0.56-1.34-1.32-1.34-2.27c0-0.75,0.23-1.41,0.69-2c0.46-0.58,1.2-1.05,2.24-1.4  c1.04-0.35,2.41-0.53,4.11-0.53c1.91,0,3.89,0.28,5.92,0.84c2.04,0.56,4.09,1.4,6.17,2.52l3.8-9.16c-2.16-1.25-4.62-2.19-7.39-2.84  c-2.76-0.64-5.58-0.97-8.44-0.97c-4.28,0-7.85,0.64-10.72,1.93c-2.87,1.29-5.02,2.99-6.45,5.11c-1.43,2.12-2.15,4.49-2.15,7.11  c0,2.33,0.46,4.25,1.37,5.77c0.91,1.52,2.1,2.74,3.55,3.68c1.45,0.94,3.06,1.69,4.83,2.27c1.77,0.58,3.53,1.06,5.3,1.43  c1.77,0.37,3.37,0.75,4.83,1.12c1.45,0.37,2.64,0.85,3.55,1.43c0.91,0.58,1.37,1.37,1.37,2.37c0,0.71-0.24,1.32-0.72,1.84  c-0.48,0.52-1.24,0.93-2.28,1.25c-1.04,0.31-2.41,0.47-4.11,0.47c-2.54,0-5.08-0.41-7.64-1.22c-2.56-0.81-4.81-1.84-6.76-3.09  l-4.05,9.1c2.08,1.41,4.77,2.57,8.07,3.46c3.3,0.89,6.74,1.34,10.32,1.34c4.32,0,7.9-0.64,10.75-1.93s4.99-3,6.42-5.14  c1.43-2.14,2.15-4.48,2.15-7.01c0-2.28-0.45-4.19-1.34-5.7C994.05,176.71,992.88,175.49,991.42,174.55z"></path>	<polygon class="st0" points="1059.3,153.52 1044.36,178.72 1029.01,153.52 1018.85,153.52 1018.85,197.14 1030.25,197.14   1030.25,174.64 1041.41,192.84 1046.89,192.84 1058.13,174 1058.24,197.14 1069.58,197.14 1069.46,153.52  "></polygon>	<path class="st0" d="M1116.61,159.09c-2.16-2.06-4.7-3.65-7.63-4.77c-2.93-1.12-6.16-1.68-9.69-1.68c-3.49,0-6.71,0.56-9.66,1.68  c-2.95,1.12-5.52,2.71-7.7,4.77c-2.18,2.06-3.88,4.46-5.08,7.2c-1.21,2.74-1.81,5.76-1.81,9.04c0,3.28,0.6,6.3,1.81,9.04  c1.2,2.74,2.9,5.14,5.08,7.2c2.18,2.06,4.75,3.65,7.7,4.77c2.95,1.12,6.17,1.68,9.66,1.68c3.53,0,6.76-0.56,9.69-1.68  c2.93-1.12,5.47-2.7,7.63-4.74c2.16-2.04,3.85-4.44,5.08-7.2c1.23-2.76,1.84-5.79,1.84-9.07c0-3.28-0.61-6.29-1.84-9.04  C1120.46,163.55,1118.77,161.15,1116.61,159.09z M1110.15,180.44c-0.6,1.54-1.43,2.86-2.49,3.96c-1.06,1.1-2.31,1.94-3.74,2.52  c-1.43,0.58-2.98,0.87-4.64,0.87c-1.66,0-3.21-0.29-4.64-0.87c-1.43-0.58-2.68-1.42-3.74-2.52c-1.06-1.1-1.89-2.42-2.49-3.96  c-0.6-1.54-0.9-3.24-0.9-5.11c0-1.91,0.3-3.62,0.9-5.14c0.6-1.52,1.43-2.82,2.49-3.93c1.06-1.1,2.31-1.94,3.74-2.52  c1.43-0.58,2.98-0.87,4.64-0.87c1.66,0,3.21,0.29,4.64,0.87c1.43,0.58,2.68,1.42,3.74,2.52c1.06,1.1,1.89,2.41,2.49,3.93  c0.6,1.52,0.9,3.23,0.9,5.14C1111.06,177.2,1110.76,178.9,1110.15,180.44z"></path>	<polygon class="st0" points="1101.65,149.96 1113.36,140.49 1101.52,140.49 1093.17,149.96  "></polygon>	<polygon class="st0" points="1146.71,181.95 1134.89,153.52 1121.55,153.52 1140.18,197.14 1152.34,197.14 1171.04,153.52   1158.82,153.52  "></polygon>	<rect x="1173.56" y="153.52" class="st0" width="12.34" height="43.63"></rect>	<polygon class="st0" points="1206.18,153.52 1193.84,153.52 1193.84,197.14 1227,197.14 1227,187.36 1206.18,187.36  "></polygon>	<polygon class="st0" points="1242.38,179.63 1261.76,179.63 1261.76,170.41 1242.38,170.41 1242.38,163.05 1264.38,163.05   1264.38,153.52 1230.16,153.52 1230.16,197.14 1265.19,197.14 1265.19,187.61 1242.38,187.61  "></polygon>	<path class="st0" d="M1301.43,174.55c-1.46-0.93-3.06-1.68-4.83-2.24c-1.77-0.56-3.53-1.03-5.3-1.4c-1.77-0.37-3.39-0.74-4.86-1.09  c-1.48-0.35-2.66-0.81-3.55-1.37c-0.9-0.56-1.34-1.32-1.34-2.27c0-0.75,0.23-1.41,0.69-2c0.46-0.58,1.2-1.05,2.24-1.4  c1.04-0.35,2.41-0.53,4.11-0.53c1.91,0,3.89,0.28,5.92,0.84c2.04,0.56,4.09,1.4,6.17,2.52l3.8-9.16c-2.16-1.25-4.62-2.19-7.39-2.84  c-2.76-0.64-5.58-0.97-8.44-0.97c-4.28,0-7.85,0.64-10.72,1.93c-2.87,1.29-5.02,2.99-6.45,5.11c-1.43,2.12-2.15,4.49-2.15,7.11  c0,2.33,0.46,4.25,1.37,5.77c0.91,1.52,2.1,2.74,3.55,3.68c1.45,0.94,3.06,1.69,4.83,2.27c1.77,0.58,3.53,1.06,5.3,1.43  c1.77,0.37,3.37,0.75,4.83,1.12c1.45,0.37,2.64,0.85,3.55,1.43c0.91,0.58,1.37,1.37,1.37,2.37c0,0.71-0.24,1.32-0.72,1.84  c-0.48,0.52-1.24,0.93-2.28,1.25c-1.04,0.31-2.41,0.47-4.11,0.47c-2.54,0-5.08-0.41-7.64-1.22s-4.81-1.84-6.76-3.09l-4.05,9.1  c2.08,1.41,4.77,2.57,8.07,3.46c3.3,0.89,6.74,1.34,10.32,1.34c4.32,0,7.9-0.64,10.75-1.93s4.99-3,6.42-5.14  c1.43-2.14,2.15-4.48,2.15-7.01c0-2.28-0.45-4.19-1.34-5.7C1304.06,176.71,1302.88,175.49,1301.43,174.55z"></path>	<path class="st0" d="M1316.92,183.68c-1.99,0-3.68,0.63-5.05,1.9c-1.37,1.27-2.06,2.96-2.06,5.08c0,2.04,0.69,3.72,2.06,5.05  c1.37,1.33,3.05,2,5.05,2c1.99,0,3.68-0.67,5.05-2c1.37-1.33,2.06-3.01,2.06-5.05c0-2.12-0.69-3.81-2.06-5.08  C1320.6,184.32,1318.92,183.68,1316.92,183.68z"></path></g></svg>